<svg xmlns="http://www.w3.org/2000/svg" width="986" height="810" fill="none" viewBox="0 0 986 810"><path fill="#fff" d="M0 0h986v810H0z"/><path fill="#e9f1fb" stroke="#64748b" d="M985.5.5v809h-933V.5z"/><path fill="#e9f1fb" stroke="#64748b" d="M988.5.5v809H.5V.5z"/><path fill="#7faeb3" stroke="#94a3b8" stroke-width=".5" d="M344 597h-58v25h58z"/><path stroke="#000" stroke-width=".2" d="M307.667 597v25M296 597v25m23.333-25v25M331 597v25"/><path fill="#000" d="M295.823 610.177a.25.25 0 0 1 0-.354l1.591-1.591a.25.25 0 0 1 .354 0 .25.25 0 0 1 0 .354L296.354 610l1.414 1.414a.25.25 0 0 1 0 .354.25.25 0 0 1-.354 0zM330 610v.25h-17v-.5h17zm-17 0v.25h-17v-.5h17z"/><path fill="#e5e7eb" d="M30 365H16v30h14z"/><path fill="#e2e8f0" stroke="#94a3b8" stroke-width="1.5" d="M402 10H60a4 4 0 0 0-4 4v102a4 4 0 0 0 4 4h342a4 4 0 0 0 4-4V14a4 4 0 0 0-4-4ZM402 130H60a4 4 0 0 0-4 4v102a4 4 0 0 0 4 4h342a4 4 0 0 0 4-4V134a4 4 0 0 0-4-4Z"/><path fill="#1a202c" d="M184.468 190v-9.455h6.26v1.649h-4.261v2.252h3.846v1.648h-3.846V190zm16.293-4.727q0 1.546-.586 2.631-.583 1.085-1.588 1.657-1.002.568-2.253.568-1.26 0-2.262-.572-1.002-.573-1.584-1.657t-.581-2.627q0-1.546.581-2.632.582-1.085 1.584-1.652 1.001-.573 2.262-.573 1.251 0 2.253.573 1.005.567 1.588 1.652.585 1.086.586 2.632m-2.027 0q0-1.002-.3-1.69-.295-.687-.835-1.043t-1.265-.356-1.265.356-.84 1.043q-.296.688-.296 1.69t.296 1.689q.3.688.84 1.044.54.355 1.265.355t1.265-.355q.54-.356.835-1.044.3-.687.3-1.689m3.508 4.727v-9.455h3.73q1.07 0 1.828.384.762.379 1.159 1.075.4.693.401 1.63 0 .942-.406 1.62a2.63 2.63 0 0 1-1.177 1.034q-.767.36-1.856.36h-2.498v-1.606h2.175q.572 0 .951-.157.378-.157.563-.471.189-.313.189-.78 0-.471-.189-.794a1.16 1.16 0 0 0-.568-.49q-.379-.17-.955-.17h-1.348V190zm5.105-4.303 2.35 4.303h-2.206l-2.299-4.303zm3.426 4.303v-9.455h6.371v1.649h-4.372v2.252h4.044v1.648h-4.044v2.258h4.39V190zm15.868-9.455V190h-1.727l-4.113-5.951h-.069V190h-1.999v-9.455h1.754l4.081 5.946h.083v-5.946zm6.78 2.72q-.055-.56-.475-.868-.42-.31-1.14-.31-.49 0-.827.139a1.17 1.17 0 0 0-.517.374.9.9 0 0 0-.175.545.8.8 0 0 0 .106.443 1.1 1.1 0 0 0 .328.327q.207.135.48.236.272.097.581.166l.85.203q.618.14 1.136.37.516.23.895.567.38.338.586.794.213.457.217 1.048-.004.869-.443 1.505-.434.633-1.255.984-.817.345-1.972.346-1.145 0-1.994-.351-.844-.35-1.32-1.039-.471-.692-.494-1.712h1.934q.032.475.272.794.246.313.651.475.411.157.928.157.509 0 .882-.148.379-.147.586-.41a.95.95 0 0 0 .208-.605.8.8 0 0 0-.189-.536 1.44 1.44 0 0 0-.545-.369 5.5 5.5 0 0 0-.872-.277l-1.03-.259q-1.195-.29-1.888-.909-.693-.618-.688-1.667-.005-.858.457-1.5.466-.642 1.279-1.002t1.846-.36q1.053 0 1.838.36.789.36 1.228 1.002.438.641.452 1.487zm5.389-2.72V190h-1.999v-9.455zm9.987 3.31h-2.022a2 2 0 0 0-.227-.697 1.8 1.8 0 0 0-.438-.526 1.9 1.9 0 0 0-.619-.332 2.4 2.4 0 0 0-.752-.116q-.735 0-1.279.365-.545.36-.845 1.053-.3.687-.3 1.671 0 1.01.3 1.699.305.687.849 1.038a2.3 2.3 0 0 0 1.261.351q.401 0 .743-.106.347-.107.614-.309.268-.209.443-.504.18-.294.25-.674l2.022.01a3.786 3.786 0 0 1-1.228 2.331 4 4 0 0 1-1.247.748q-.72.272-1.63.272-1.264 0-2.262-.572-.991-.573-1.569-1.657-.573-1.085-.573-2.627 0-1.546.582-2.632.582-1.085 1.579-1.652.998-.573 2.243-.573a4.9 4.9 0 0 1 1.524.231 3.9 3.9 0 0 1 1.251.674q.545.438.886 1.076.346.637.444 1.458m4.442 6.145v-9.455h1.999v7.807h4.053V190zm9.247 0h-2.143l3.264-9.455h2.576l3.26 9.455h-2.142l-2.369-7.294h-.074zm-.134-3.716h5.059v1.56h-5.059zm8.229 3.716v-9.455h3.785q1.044 0 1.74.31.697.309 1.048.858.351.546.351 1.256 0 .554-.221.974a1.9 1.9 0 0 1-.61.683q-.383.263-.877.374v.093q.54.023 1.011.304.476.282.771.79.296.502.296 1.2 0 .753-.374 1.343-.37.587-1.094.928t-1.787.342zm1.998-1.634h1.63q.835 0 1.219-.319.383-.323.383-.858 0-.393-.189-.693a1.3 1.3 0 0 0-.54-.471 1.85 1.85 0 0 0-.827-.171h-1.676zm0-3.864h1.482q.41 0 .73-.143.322-.148.508-.416.189-.267.189-.642 0-.512-.365-.826-.36-.314-1.025-.314h-1.519z"/><path fill="#e2e8f0" stroke="#94a3b8" stroke-width="1.5" d="M402 250H60a4 4 0 0 0-4 4v102a4 4 0 0 0 4 4h342a4 4 0 0 0 4-4V254a4 4 0 0 0-4-4Z"/><path fill="#1a202c" d="M173.271 310v-9.455h6.371v1.649h-4.372v2.252h4.044v1.648h-4.044v2.258h4.39V310zm15.868-9.455V310h-1.727l-4.113-5.951h-.069V310h-1.999v-9.455h1.754l4.081 5.946h.083v-5.946zm7.921 3.057a2.1 2.1 0 0 0-.273-.596 1.853 1.853 0 0 0-1.001-.725 2.5 2.5 0 0 0-.707-.097q-.725 0-1.274.36-.544.36-.849 1.048-.305.684-.305 1.671 0 .988.3 1.681t.849 1.057q.55.36 1.298.36.678 0 1.158-.24.486-.244.739-.688.258-.443.259-1.048l.406.06h-2.438v-1.505h3.957v1.191q0 1.247-.527 2.142a3.6 3.6 0 0 1-1.449 1.376q-.924.48-2.115.48-1.33 0-2.336-.586a4.07 4.07 0 0 1-1.569-1.676q-.56-1.09-.559-2.585 0-1.15.333-2.05a4.4 4.4 0 0 1 .941-1.532 4.1 4.1 0 0 1 1.408-.956 4.6 4.6 0 0 1 1.741-.328q.803 0 1.496.236.692.23 1.228.655.54.424.881 1.011.342.582.439 1.284zm5.619-3.057V310h-1.999v-9.455zm9.553 0V310h-1.727l-4.113-5.951h-.069V310h-1.999v-9.455h1.754l4.081 5.946h.083v-5.946zm1.651 9.455v-9.455h6.371v1.649h-4.372v2.252h4.044v1.648h-4.044v2.258h4.39V310zm7.96 0v-9.455h6.371v1.649h-4.372v2.252h4.044v1.648h-4.044v2.258h4.39V310zm7.96 0v-9.455h3.73q1.072 0 1.828.384.762.379 1.159 1.075.402.693.402 1.63 0 .942-.406 1.62-.407.674-1.178 1.034-.766.36-1.855.36h-2.498v-1.606h2.174q.573 0 .951-.157.379-.158.564-.471.189-.313.189-.78 0-.471-.189-.794a1.17 1.17 0 0 0-.568-.49q-.379-.17-.956-.17h-1.348V310zm5.106-4.303 2.35 4.303h-2.207l-2.299-4.303zm5.424-5.152V310h-1.999v-9.455zm9.553 0V310h-1.727l-4.113-5.951h-.069V310h-1.999v-9.455h1.754l4.081 5.946h.083v-5.946zm7.921 3.057a2.1 2.1 0 0 0-.273-.596 1.853 1.853 0 0 0-1.001-.725 2.5 2.5 0 0 0-.707-.097q-.725 0-1.274.36-.544.36-.849 1.048-.305.684-.305 1.671 0 .988.3 1.681t.849 1.057q.55.36 1.298.36.678 0 1.158-.24.486-.244.739-.688.259-.443.259-1.048l.406.06h-2.438v-1.505h3.957v1.191q0 1.247-.527 2.142a3.6 3.6 0 0 1-1.449 1.376q-.923.48-2.115.48-1.33 0-2.335-.586a4.07 4.07 0 0 1-1.57-1.676q-.558-1.09-.559-2.585 0-1.15.333-2.05a4.35 4.35 0 0 1 .942-1.532 4.05 4.05 0 0 1 1.408-.956 4.6 4.6 0 0 1 1.74-.328q.803 0 1.496.236.692.23 1.228.655.54.424.881 1.011.342.582.439 1.284zm6.629 6.398v-9.455h1.999v7.807h4.053V310zm9.247 0h-2.142l3.264-9.455h2.576L280.64 310h-2.142l-2.368-7.294h-.074zm-.134-3.716h5.06v1.56h-5.06zm8.229 3.716v-9.455h3.785q1.044 0 1.741.31.697.309 1.048.858.351.546.351 1.256 0 .554-.222.974a1.9 1.9 0 0 1-.609.683q-.383.264-.878.374v.093q.54.023 1.011.304.476.282.771.79.296.503.296 1.2 0 .753-.374 1.343-.37.587-1.094.928t-1.787.342zm1.999-1.634h1.629q.836 0 1.219-.319.383-.322.383-.858 0-.393-.189-.693a1.3 1.3 0 0 0-.54-.471 1.85 1.85 0 0 0-.826-.171h-1.676zm0-3.864h1.482q.411 0 .729-.143.323-.148.508-.416.189-.267.189-.642 0-.512-.365-.826-.36-.314-1.024-.314h-1.519z"/><path fill="#e2e8f0" stroke="#94a3b8" stroke-width="1.5" d="M892 10H490a4 4 0 0 0-4 4v102a4 4 0 0 0 4 4h402a4 4 0 0 0 4-4V14a4 4 0 0 0-4-4Z"/><path fill="#1a202c" d="M662.039 79V68.818h2.153v8.407h4.365V79zm10.096-10.182V79h-2.152V68.818zM673.906 79V68.818h4.077q1.124 0 1.874.333.751.333 1.129.925.378.587.378 1.352 0 .597-.239 1.05a2.06 2.06 0 0 1-.656.735 2.7 2.7 0 0 1-.945.403v.1a2.325 2.325 0 0 1 1.919 1.178q.318.541.319 1.292 0 .81-.403 1.447-.398.63-1.178 1-.781.367-1.924.367zm2.153-1.76h1.755q.9 0 1.313-.343.412-.348.412-.925 0-.422-.204-.745a1.4 1.4 0 0 0-.581-.508 2 2 0 0 0-.89-.183h-1.805zm0-4.161h1.596a1.9 1.9 0 0 0 .786-.154 1.3 1.3 0 0 0 .546-.448q.204-.288.204-.69 0-.553-.393-.89-.387-.339-1.103-.339h-1.636zM683.162 79V68.818h4.017q1.154 0 1.969.413.82.408 1.248 1.158.432.745.432 1.755 0 1.014-.437 1.745-.438.726-1.268 1.114-.825.387-1.998.388h-2.69v-1.73h2.342q.616 0 1.024-.17.408-.168.606-.507.204-.337.204-.84 0-.507-.204-.855a1.25 1.25 0 0 0-.611-.527q-.408-.184-1.029-.184h-1.452V79zm5.499-4.633 2.53 4.633h-2.376l-2.476-4.633zM694.105 79h-2.307l3.515-10.182h2.774L701.597 79h-2.307l-2.55-7.855h-.08zm-.144-4.002h5.448v1.68h-5.448zM702.822 79V68.818h4.017q1.154 0 1.969.413.82.408 1.248 1.158.433.745.433 1.755 0 1.014-.438 1.745-.437.726-1.268 1.114-.825.387-1.998.388h-2.69v-1.73h2.342q.616 0 1.024-.17.408-.168.606-.507.204-.337.204-.84 0-.507-.204-.855a1.25 1.25 0 0 0-.611-.527q-.408-.184-1.029-.184h-1.452V79zm5.499-4.633L710.852 79h-2.377l-2.476-4.633zm2.669-5.549h2.411l2.321 4.385h.1l2.322-4.385h2.411l-3.714 6.583V79h-2.138v-3.6z"/><path fill="#e2e8f0" stroke="#94a3b8" stroke-width="1.5" d="M682 130H490a4 4 0 0 0-4 4v102a4 4 0 0 0 4 4h192a4 4 0 0 0 4-4V134a4 4 0 0 0-4-4Z"/><path fill="#1a202c" d="M571.759 190v-9.455h1.999v3.901h4.058v-3.901h1.994V190h-1.994v-3.906h-4.058V190zm9.699 0v-9.455h3.73q1.07 0 1.828.384.762.379 1.159 1.075.402.693.402 1.63 0 .942-.407 1.62a2.63 2.63 0 0 1-1.177 1.034q-.766.36-1.856.36h-2.497v-1.606h2.174q.573 0 .951-.157a1.13 1.13 0 0 0 .563-.471q.19-.313.19-.78 0-.471-.19-.794a1.16 1.16 0 0 0-.567-.49q-.379-.17-.956-.17h-1.348V190zm5.106-4.303 2.35 4.303h-2.207l-2.299-4.303zm3.425-5.152h2.465l2.604 6.353h.111l2.604-6.353h2.465V190h-1.939v-6.154h-.079l-2.446 6.108h-1.321l-2.446-6.131h-.079V190h-1.939z"/><path fill="#e2e8f0" stroke="#94a3b8" stroke-width="1.5" d="M892 130H700a4 4 0 0 0-4 4v102a4 4 0 0 0 4 4h192a4 4 0 0 0 4-4V134a4 4 0 0 0-4-4Z"/><path fill="#1a202c" d="M776.738 177.265q-.056-.56-.476-.868-.42-.31-1.14-.31a2.2 2.2 0 0 0-.826.139 1.16 1.16 0 0 0-.517.374.9.9 0 0 0-.176.545.8.8 0 0 0 .106.443q.12.189.328.327.208.135.48.236.273.097.582.166l.849.203q.619.14 1.136.37t.896.567q.378.338.586.794.212.457.217 1.048-.005.869-.443 1.505-.434.633-1.256.984-.817.345-1.971.346-1.145 0-1.995-.351-.845-.35-1.32-1.039-.47-.692-.494-1.712h1.934q.033.475.273.794.245.313.651.475.41.157.928.157.507 0 .881-.148.379-.147.587-.41a.95.95 0 0 0 .207-.605.8.8 0 0 0-.189-.536 1.44 1.44 0 0 0-.545-.369 5.5 5.5 0 0 0-.872-.277l-1.03-.259q-1.195-.29-1.888-.909-.692-.618-.688-1.667-.004-.858.457-1.5.467-.642 1.279-1.002.813-.36 1.847-.36 1.053 0 1.837.36.79.36 1.228 1.002.439.641.453 1.487zm9.229-2.72h1.999v6.14q0 1.035-.494 1.81-.489.775-1.371 1.21-.881.429-2.054.429-1.177 0-2.059-.429a3.3 3.3 0 0 1-1.371-1.21q-.49-.775-.49-1.81v-6.14h1.999v5.97q0 .54.236.96.24.42.674.66.433.24 1.011.24.582 0 1.011-.24.434-.24.669-.66.24-.42.24-.96zm3.644 9.455v-9.455h3.73q1.076 0 1.833.411a2.8 2.8 0 0 1 1.154 1.131q.402.72.401 1.662 0 .942-.406 1.662t-1.177 1.122q-.767.402-1.856.402h-2.377v-1.602h2.054q.577 0 .951-.199.378-.203.563-.558.189-.36.189-.827 0-.471-.189-.821a1.26 1.26 0 0 0-.563-.55q-.378-.198-.96-.198h-1.348V184zm8.417 0v-9.455h3.73q1.075 0 1.833.411a2.8 2.8 0 0 1 1.154 1.131q.402.72.401 1.662 0 .942-.406 1.662t-1.177 1.122q-.767.402-1.856.402h-2.377v-1.602h2.054q.577 0 .951-.199.378-.203.563-.558.189-.36.189-.827 0-.471-.189-.821a1.26 1.26 0 0 0-.563-.55q-.378-.198-.96-.198h-1.348V184zm8.417 0v-9.455h1.999v7.807h4.053V184zm5.616-9.455h2.239l2.156 4.072h.092l2.156-4.072h2.239l-3.449 6.113V184h-1.985v-3.342zM772.796 193.265q-.056-.56-.476-.868-.42-.31-1.14-.31a2.2 2.2 0 0 0-.826.139 1.16 1.16 0 0 0-.517.374.9.9 0 0 0-.176.545.8.8 0 0 0 .106.443q.12.189.328.327.208.135.48.236.273.097.582.166l.849.203q.619.14 1.136.37t.896.567.586.794q.213.457.217 1.048-.005.869-.443 1.505-.434.633-1.256.984-.817.345-1.971.346-1.145 0-1.994-.351-.846-.35-1.321-1.039-.47-.692-.494-1.712h1.935q.032.475.272.794.245.313.651.475.41.157.928.157.507 0 .882-.148.378-.147.586-.41a.96.96 0 0 0 .208-.605.8.8 0 0 0-.19-.536 1.4 1.4 0 0 0-.544-.369 5.5 5.5 0 0 0-.873-.277l-1.029-.259q-1.197-.29-1.889-.909-.692-.618-.687-1.667-.006-.858.457-1.5.466-.642 1.278-1.002t1.847-.36q1.053 0 1.837.36.79.36 1.228 1.002.439.641.453 1.487zm3.39 6.735v-9.455h6.37v1.649h-4.372v2.252h4.044v1.648h-4.044v2.258h4.391V200zm16.301-6.145h-2.022a2 2 0 0 0-.226-.697 1.8 1.8 0 0 0-.438-.526 1.9 1.9 0 0 0-.619-.332 2.4 2.4 0 0 0-.752-.116q-.735 0-1.279.365-.545.36-.845 1.053-.3.687-.3 1.671 0 1.01.3 1.699.304.687.849 1.038a2.3 2.3 0 0 0 1.261.351q.4 0 .743-.106a2 2 0 0 0 .614-.309 1.8 1.8 0 0 0 .443-.504q.18-.294.249-.674l2.022.01a3.772 3.772 0 0 1-1.228 2.331 3.9 3.9 0 0 1-1.246.748q-.72.272-1.63.272-1.264 0-2.262-.572-.992-.573-1.569-1.657-.573-1.085-.573-2.627 0-1.546.582-2.632.582-1.085 1.579-1.652.997-.573 2.243-.573a4.9 4.9 0 0 1 1.524.231 3.9 3.9 0 0 1 1.251.674q.545.438.886 1.076.347.637.443 1.458m1.074-1.661v-1.649h7.765v1.649h-2.895V200h-1.976v-7.806zm11.042-1.649V200h-1.999v-9.455zm10.333 4.728q0 1.546-.586 2.631-.582 1.085-1.588 1.657-1.002.568-2.253.568-1.26 0-2.262-.572-1.002-.573-1.584-1.657-.58-1.085-.581-2.627 0-1.546.581-2.632.582-1.085 1.584-1.652 1.002-.573 2.262-.573 1.251 0 2.253.573 1.006.567 1.588 1.652.586 1.086.586 2.632m-2.026 0q0-1.002-.3-1.69-.296-.687-.836-1.043t-1.265-.356-1.265.356-.84 1.043q-.296.688-.296 1.69t.296 1.689q.3.688.84 1.044.54.355 1.265.355t1.265-.355q.54-.356.836-1.044.3-.687.3-1.689m11.415-4.728V200h-1.727l-4.113-5.951h-.069V200h-1.999v-9.455h1.754l4.081 5.946h.083v-5.946z"/><path fill="#e2e8f0" stroke="#94a3b8" stroke-width="1.5" d="M681.789 249H490.211c-2.326 0-4.211 1.791-4.211 4v102c0 2.209 1.885 4 4.211 4h191.578c2.326 0 4.211-1.791 4.211-4V253c0-2.209-1.885-4-4.211-4Z"/><path fill="#1a202c" d="M564.177 291.909h2.37l2.504 6.108h.107l2.503-6.108h2.37V301h-1.864v-5.917h-.075l-2.353 5.873h-1.269l-2.353-5.895h-.076V301h-1.864zm17.053 0h1.922v5.904q0 .995-.475 1.74a3.17 3.17 0 0 1-1.318 1.163q-.848.413-1.975.413-1.132 0-1.98-.413a3.17 3.17 0 0 1-1.318-1.163q-.471-.745-.471-1.74v-5.904h1.922v5.74q0 .52.227.923.23.404.648.635.417.231.972.231.56 0 .972-.231.418-.231.643-.635.231-.404.231-.923zm3.504 9.091v-9.091h1.922v7.506h3.897V301zm5.611-7.506v-1.585h7.466v1.585h-2.783V301h-1.9v-7.506zm10.617-1.585V301h-1.922v-9.091zm5.794 3.795v1.501h-4.146v-1.501zM557.225 321v-9.091h3.586q1.034 0 1.763.395.728.391 1.109 1.088.387.692.387 1.598 0 .905-.391 1.598a2.7 2.7 0 0 1-1.132 1.078q-.737.387-1.784.387h-2.287v-1.541h1.976q.555 0 .914-.191.364-.195.542-.537.182-.346.182-.794a1.64 1.64 0 0 0-.182-.79 1.22 1.22 0 0 0-.542-.529q-.363-.19-.923-.191h-1.296V321zm13.708-9.091h1.922v5.904q0 .995-.475 1.74a3.17 3.17 0 0 1-1.318 1.163q-.848.413-1.975.413-1.132 0-1.98-.413a3.2 3.2 0 0 1-1.319-1.163q-.47-.745-.47-1.74v-5.904h1.922v5.74q0 .52.226.923.231.404.648.635t.973.231q.559 0 .972-.231.417-.231.643-.635.231-.404.231-.923zm3.504 9.091v-9.091h3.586q1.03 0 1.758.369.733.363 1.114 1.034.387.666.386 1.567 0 .905-.39 1.558a2.54 2.54 0 0 1-1.132.994q-.736.346-1.785.346h-2.401v-1.544h2.091q.55 0 .914-.151t.542-.453q.182-.302.182-.75 0-.453-.182-.764a1.12 1.12 0 0 0-.546-.47q-.364-.165-.919-.165h-1.296V321zm4.909-4.137 2.259 4.137h-2.121l-2.211-4.137zM582.64 321v-9.091h3.586q1.034 0 1.763.395.728.391 1.109 1.088.387.692.387 1.598 0 .905-.391 1.598-.39.692-1.132 1.078-.737.387-1.784.387h-2.286v-1.541h1.975q.555 0 .914-.191.364-.195.542-.537.182-.346.182-.794a1.64 1.64 0 0 0-.182-.79 1.22 1.22 0 0 0-.542-.529q-.363-.19-.923-.191h-1.296V321zm16.447-4.545q0 1.486-.564 2.53-.56 1.043-1.527 1.593-.963.546-2.166.546-1.212 0-2.175-.55-.964-.55-1.522-1.594-.56-1.043-.56-2.525 0-1.488.56-2.531.558-1.043 1.522-1.589.963-.55 2.175-.55 1.203 0 2.166.55.967.546 1.527 1.589.564 1.043.564 2.531m-1.949 0q0-.964-.288-1.625-.284-.661-.804-1.003-.519-.342-1.216-.342t-1.216.342-.808 1.003q-.284.661-.284 1.625 0 .963.284 1.624.288.662.808 1.003.52.342 1.216.342.697 0 1.216-.342.52-.341.804-1.003.288-.661.288-1.624m8.304-1.931q-.052-.538-.457-.835-.404-.297-1.096-.297-.471 0-.795.133a1.13 1.13 0 0 0-.497.359.87.87 0 0 0-.169.524.75.75 0 0 0 .103.426q.115.183.315.316.2.128.461.226.262.093.56.16l.816.195q.596.133 1.092.355.498.222.862.546.363.324.563.764.204.439.209 1.007-.005.835-.426 1.447-.417.609-1.208.946-.785.333-1.895.333-1.1 0-1.918-.338-.812-.337-1.269-.998-.453-.666-.475-1.647h1.86q.03.457.262.763.235.302.626.457.394.151.892.151a2.3 2.3 0 0 0 .848-.142q.363-.141.563-.395a.9.9 0 0 0 .2-.581.76.76 0 0 0-.182-.515 1.4 1.4 0 0 0-.524-.355 5.3 5.3 0 0 0-.839-.267l-.99-.248q-1.149-.28-1.815-.875-.666-.594-.661-1.602-.005-.825.439-1.443.448-.617 1.23-.963.78-.346 1.775-.346 1.012 0 1.767.346.758.346 1.181.963.422.618.435 1.43zm3.26 6.476v-9.091h6.125v1.585h-4.203v2.166h3.888v1.585h-3.888v2.17h4.221V321z"/><path fill="#e2e8f0" stroke="#94a3b8" stroke-width="1.5" d="M892.19 250H699.81c-2.104 0-3.81 1.775-3.81 3.964v101.072c0 2.189 1.706 3.964 3.81 3.964h192.38c2.104 0 3.81-1.775 3.81-3.964V253.964c0-2.189-1.706-3.964-3.81-3.964Z"/><path fill="#1a202c" d="M752.229 309v-9.455h1.999v7.807h4.054V309zm9.247 0h-2.142l3.264-9.455h2.576l3.259 9.455h-2.142l-2.368-7.294h-.074zm-.134-3.716h5.06v1.56h-5.06zm8.229 3.716v-9.455h3.786q1.043 0 1.74.31.697.309 1.048.858.351.546.351 1.256 0 .554-.222.974-.22.416-.609.683-.383.264-.877.374v.093q.54.023 1.011.304.476.282.771.79.295.503.295 1.2 0 .753-.374 1.343-.37.587-1.094.928t-1.786.342zm1.999-1.634h1.63q.835 0 1.219-.319.383-.322.383-.858 0-.393-.19-.693a1.3 1.3 0 0 0-.54-.471 1.85 1.85 0 0 0-.826-.171h-1.676zm0-3.864h1.482q.411 0 .729-.143.324-.148.508-.416.19-.267.19-.642 0-.512-.365-.826-.36-.314-1.025-.314h-1.519zm15.284.771q0 1.547-.586 2.631-.582 1.085-1.588 1.657-1.002.568-2.253.568-1.26 0-2.262-.572-1.002-.573-1.584-1.657-.58-1.085-.581-2.627 0-1.546.581-2.632.582-1.085 1.584-1.652 1.002-.573 2.262-.573 1.251 0 2.253.573 1.006.567 1.588 1.652.586 1.086.586 2.632m-2.026 0q0-1.002-.301-1.69-.295-.687-.835-1.043t-1.265-.356-1.265.356-.84 1.043q-.296.688-.296 1.69t.296 1.689q.3.688.84 1.044.54.355 1.265.355t1.265-.355.835-1.044q.301-.687.301-1.689m3.507 4.727v-9.455h3.73q1.07 0 1.828.384.762.379 1.159 1.075.402.693.402 1.63 0 .942-.407 1.62a2.63 2.63 0 0 1-1.177 1.034q-.766.36-1.856.36h-2.497v-1.606h2.174q.573 0 .951-.157.378-.158.563-.471.19-.313.19-.78 0-.471-.19-.794a1.16 1.16 0 0 0-.568-.49q-.378-.17-.955-.17h-1.348V309zm5.106-4.303 2.35 4.303h-2.207l-2.299-4.303zm5.055 4.303h-2.142l3.264-9.455h2.576l3.259 9.455h-2.142l-2.368-7.294h-.074zm-.134-3.716h5.06v1.56h-5.06zm6.713-4.09v-1.649h7.765v1.649h-2.894V309h-1.976v-7.806zm17.301 3.079q0 1.547-.587 2.631-.581 1.085-1.588 1.657-1.001.568-2.253.568-1.26 0-2.262-.572-1-.573-1.583-1.657-.582-1.085-.582-2.627 0-1.546.582-2.632.582-1.085 1.583-1.652 1.002-.573 2.262-.573 1.252 0 2.253.573 1.007.567 1.588 1.652.587 1.086.587 2.632m-2.027 0q0-1.002-.3-1.69-.296-.687-.836-1.043t-1.265-.356-1.264.356q-.541.356-.841 1.043-.295.688-.295 1.69t.295 1.689q.3.688.841 1.044.54.355 1.264.355.726 0 1.265-.355.54-.356.836-1.044.3-.687.3-1.689m3.507 4.727v-9.455h3.731q1.07 0 1.828.384.761.379 1.158 1.075.402.693.402 1.63 0 .942-.406 1.62a2.63 2.63 0 0 1-1.177 1.034q-.767.36-1.856.36h-2.498v-1.606h2.175q.571 0 .951-.157.378-.158.563-.471.189-.313.189-.78 0-.471-.189-.794a1.16 1.16 0 0 0-.568-.49q-.378-.17-.956-.17h-1.348V309zm5.106-4.303 2.35 4.303h-2.207l-2.299-4.303zm2.478-5.152h2.239l2.156 4.072h.092l2.156-4.072h2.239l-3.448 6.113V309h-1.985v-3.342z"/><path fill="#e2e8f0" stroke="#94a3b8" stroke-width="1.5" d="M178.059 500H58.941c-1.624 0-2.941 1.791-2.941 4v82c0 2.209 1.317 4 2.941 4H178.06c1.624 0 2.941-1.791 2.941-4v-82c0-2.209-1.317-4-2.941-4Z"/><path fill="#1a202c" d="M99.05 538h-3.222v-9.091h3.249q1.371 0 2.361.546.99.541 1.523 1.558.537 1.017.537 2.433 0 1.42-.537 2.441a3.7 3.7 0 0 1-1.532 1.567q-.994.546-2.379.546m-1.3-1.647h1.22q.852 0 1.434-.302.587-.306.879-.945.297-.644.297-1.66 0-1.008-.297-1.647a1.92 1.92 0 0 0-.875-.941q-.58-.302-1.433-.302H97.75zm7.172 1.647v-9.091h3.586q1.03 0 1.758.369.733.363 1.114 1.034.387.666.387 1.567 0 .905-.391 1.558a2.54 2.54 0 0 1-1.132.994q-.737.346-1.784.346h-2.402v-1.544h2.091q.55 0 .914-.151t.542-.453q.182-.301.182-.75 0-.453-.182-.764a1.12 1.12 0 0 0-.546-.47q-.364-.165-.919-.165h-1.296V538zm4.909-4.137 2.26 4.137h-2.122l-2.211-4.137zm8.909-4.954h1.922v5.904q0 .995-.475 1.74a3.2 3.2 0 0 1-1.318 1.163q-.848.413-1.976.413-1.131 0-1.979-.413a3.2 3.2 0 0 1-1.319-1.163q-.47-.745-.47-1.74v-5.904h1.922v5.74q0 .52.226.923.231.404.648.635.419.231.972.231.56 0 .973-.231.417-.231.643-.635.231-.404.231-.923zm9.532 2.939a2 2 0 0 0-.262-.573 1.772 1.772 0 0 0-.964-.697 2.3 2.3 0 0 0-.679-.093q-.697 0-1.225.346-.523.346-.817 1.008-.293.657-.293 1.607t.289 1.615q.288.666.817 1.017.528.346 1.247.346.652 0 1.114-.231.467-.234.71-.661.249-.426.249-1.008l.391.058h-2.344v-1.447h3.804v1.145q0 1.199-.506 2.06a3.45 3.45 0 0 1-1.394 1.323q-.888.46-2.033.461-1.278 0-2.246-.563a3.9 3.9 0 0 1-1.509-1.612q-.537-1.047-.537-2.486 0-1.104.319-1.97.324-.87.906-1.474a3.9 3.9 0 0 1 1.354-.919 4.4 4.4 0 0 1 1.673-.315q.772 0 1.438.226.666.222 1.181.631.52.408.848.972a3.3 3.3 0 0 1 .422 1.234zM91.57 555.494v-1.585h7.466v1.585h-2.783V563h-1.9v-7.506zm8.695 7.506v-9.091h6.126v1.585h-4.203v2.166h3.888v1.585h-3.888v2.17h4.221V563zm12.586-6.476q-.054-.537-.457-.835-.405-.297-1.097-.297a2.1 2.1 0 0 0-.794.133 1.1 1.1 0 0 0-.497.359.86.86 0 0 0-.169.524.75.75 0 0 0 .102.426q.116.183.315.316.2.128.462.226.262.093.559.16l.817.195a6 6 0 0 1 1.092.355q.496.222.861.546.364.324.564.764.204.439.208 1.007-.004.835-.426 1.447-.417.609-1.207.946-.786.333-1.896.333-1.1 0-1.917-.338-.813-.337-1.27-.998-.453-.666-.475-1.647h1.86q.031.457.262.763.236.302.626.457.395.151.892.151.489 0 .848-.142a1.3 1.3 0 0 0 .564-.395.9.9 0 0 0 .2-.581.76.76 0 0 0-.182-.515 1.4 1.4 0 0 0-.524-.355 5.3 5.3 0 0 0-.839-.267l-.99-.248q-1.15-.28-1.816-.875-.665-.594-.661-1.602-.004-.825.439-1.443.448-.616 1.23-.963.781-.346 1.776-.346 1.011 0 1.766.346.76.346 1.181.963.422.618.435 1.43zm2.913-1.03v-1.585h7.466v1.585h-2.783V563h-1.9v-7.506zm10.618-1.585V563h-1.922v-9.091zm9.185 0V563h-1.66l-3.955-5.722h-.067V563h-1.922v-9.091h1.687l3.924 5.717h.08v-5.717zm7.616 2.939a2 2 0 0 0-.262-.573 1.6 1.6 0 0 0-.413-.426 1.8 1.8 0 0 0-.55-.271 2.3 2.3 0 0 0-.679-.093 2.2 2.2 0 0 0-1.225.346q-.524.346-.817 1.008-.293.657-.293 1.607t.289 1.615q.288.666.816 1.017.528.346 1.248.346.652 0 1.114-.231.466-.234.71-.661.249-.426.249-1.008l.39.058h-2.344v-1.447h3.805v1.145q0 1.199-.506 2.06a3.46 3.46 0 0 1-1.394 1.323q-.888.46-2.033.461-1.279 0-2.246-.563a3.9 3.9 0 0 1-1.51-1.612q-.537-1.047-.537-2.486 0-1.104.32-1.97.324-.87.905-1.474a3.9 3.9 0 0 1 1.354-.919 4.4 4.4 0 0 1 1.674-.315q.772 0 1.438.226.665.222 1.181.631.52.408.848.972.328.56.421 1.234z"/><path fill="#e0f2fe" stroke="#38bdf8" stroke-width="1.5" d="M112 600H60a4 4 0 0 0-4 4v42a4 4 0 0 0 4 4h52a4 4 0 0 0 4-4v-42a4 4 0 0 0-4-4Z"/><path fill="#0369a1" d="M86.01 624.328h-1.867a1.8 1.8 0 0 0-.209-.643 1.6 1.6 0 0 0-.404-.486 1.8 1.8 0 0 0-.572-.307 2.2 2.2 0 0 0-.694-.106q-.678 0-1.18.336-.504.333-.78.972-.277.635-.277 1.542 0 .934.277 1.569.28.634.784.958a2.1 2.1 0 0 0 1.163.324q.37 0 .686-.098.32-.098.567-.285.247-.192.409-.465a1.8 1.8 0 0 0 .23-.622l1.867.009q-.074.6-.363 1.159-.285.553-.77.993a3.7 3.7 0 0 1-1.151.69 4.2 4.2 0 0 1-1.505.251q-1.167 0-2.088-.528-.916-.528-1.449-1.53-.528-1.002-.528-2.425 0-1.427.537-2.429t1.457-1.525q.92-.528 2.071-.529.76 0 1.406.213.653.214 1.155.623.503.404.819.993.32.588.409 1.346M87.333 630v-8.727h3.443q.989 0 1.687.353a2.45 2.45 0 0 1 1.07.993q.37.64.37 1.505 0 .869-.374 1.495-.375.622-1.087.955-.707.332-1.713.332h-2.305v-1.483h2.007q.528 0 .878-.145a1.04 1.04 0 0 0 .52-.434q.174-.29.174-.72 0-.435-.174-.733a1.07 1.07 0 0 0-.525-.452q-.35-.158-.882-.158h-1.244V630zm4.713-3.972L94.215 630h-2.037l-2.122-3.972z"/><path fill="#e2e8f0" stroke="#94a3b8" stroke-width="1.5" d="M178.059 660H58.941c-1.624 0-2.941 2.442-2.941 5.455v139.09c0 3.013 1.317 5.455 2.941 5.455H178.06c1.624 0 2.941-2.442 2.941-5.455v-139.09c0-3.013-1.317-5.455-2.941-5.455Z"/><path fill="#1a202c" d="M105.891 723.273V732h-1.845v-8.727zm9.218 3.055h-1.866a1.8 1.8 0 0 0-.209-.643 1.6 1.6 0 0 0-.405-.486 1.8 1.8 0 0 0-.571-.307 2.2 2.2 0 0 0-.695-.106q-.677 0-1.18.336-.502.333-.78.972-.276.635-.277 1.542 0 .934.277 1.569.282.634.784.958.503.324 1.164.324.37 0 .686-.098a1.8 1.8 0 0 0 .567-.285 1.7 1.7 0 0 0 .409-.465q.165-.273.23-.622l1.866.009q-.072.6-.362 1.159-.285.553-.771.993a3.7 3.7 0 0 1-1.151.69 4.2 4.2 0 0 1-1.504.251q-1.168 0-2.088-.528-.916-.528-1.449-1.53-.528-1.002-.528-2.425 0-1.427.536-2.429.537-1.001 1.458-1.525.92-.529 2.071-.529.758 0 1.406.213.652.214 1.155.623.503.404.818.993.32.588.409 1.346m9.024 0h-1.867a1.8 1.8 0 0 0-.209-.643 1.6 1.6 0 0 0-.404-.486 1.8 1.8 0 0 0-.572-.307 2.2 2.2 0 0 0-.694-.106q-.678 0-1.181.336-.503.333-.779.972-.277.635-.277 1.542 0 .934.277 1.569.281.634.784.958a2.1 2.1 0 0 0 1.163.324q.37 0 .686-.098a1.8 1.8 0 0 0 .567-.285q.247-.192.409-.465.167-.273.23-.622l1.867.009q-.073.6-.363 1.159-.285.553-.771.993a3.7 3.7 0 0 1-1.15.69 4.2 4.2 0 0 1-1.505.251q-1.167 0-2.088-.528-.917-.528-1.449-1.53-.528-1.002-.528-2.425 0-1.427.537-2.429t1.457-1.525q.92-.529 2.071-.529.759 0 1.407.213.651.214 1.154.623.503.404.819.993.32.588.409 1.346m.99-1.534v-1.521h7.168v1.521h-2.672V732h-1.824v-7.206zM67.815 755v-8.727h5.779v1.521H69.66v2.08h3.55v1.521h-3.55V755zm7.434 0h-1.977l3.013-8.727h2.377L81.672 755h-1.977l-2.186-6.733h-.069zm-.123-3.43h4.67v1.44h-4.67zm14.885-2.242h-1.866a1.8 1.8 0 0 0-.209-.643 1.6 1.6 0 0 0-.405-.486 1.8 1.8 0 0 0-.57-.307 2.2 2.2 0 0 0-.695-.106q-.678 0-1.18.336-.504.333-.78.972-.277.635-.277 1.542 0 .934.277 1.569.28.634.784.958a2.1 2.1 0 0 0 1.163.324q.37 0 .686-.098.32-.098.567-.285.247-.192.409-.465.166-.273.23-.622l1.867.009q-.074.6-.363 1.159-.285.553-.771.993a3.7 3.7 0 0 1-1.15.69 4.2 4.2 0 0 1-1.505.251q-1.167 0-2.088-.528-.916-.528-1.449-1.53-.528-1.002-.528-2.425 0-1.427.537-2.429t1.457-1.525q.92-.529 2.071-.529.76 0 1.406.213.653.214 1.155.623.502.404.819.993.32.588.409 1.346m6.714-3.055h1.846v5.667q0 .955-.456 1.671a3.05 3.05 0 0 1-1.266 1.116q-.815.397-1.896.397-1.087 0-1.901-.397a3.05 3.05 0 0 1-1.266-1.116q-.45-.716-.451-1.671v-5.667h1.845v5.51q0 .499.217.886.222.389.622.609.4.222.934.222.537 0 .933-.222.4-.22.618-.609.22-.387.221-.886zM100.09 755v-8.727h1.845v7.206h3.741V755zm5.386-7.206v-1.521h7.168v1.521h-2.672V755h-1.824v-7.206zm7.837-1.521h2.066l1.99 3.758h.086l1.99-3.758h2.066l-3.183 5.642V755h-1.832v-3.085zm19.684 3.055h-1.867a1.8 1.8 0 0 0-.208-.643 1.6 1.6 0 0 0-.405-.486 1.8 1.8 0 0 0-.571-.307 2.2 2.2 0 0 0-.695-.106q-.678 0-1.18.336-.502.333-.78.972-.277.635-.277 1.542 0 .934.277 1.569.281.634.784.958a2.1 2.1 0 0 0 1.163.324q.371 0 .686-.098.32-.098.567-.285.247-.192.409-.465.167-.273.23-.622l1.867.009q-.072.6-.362 1.159-.286.553-.772.993a3.7 3.7 0 0 1-1.15.69 4.2 4.2 0 0 1-1.504.251q-1.168 0-2.089-.528-.915-.528-1.448-1.53-.53-1.002-.529-2.425 0-1.427.537-2.429t1.458-1.525q.92-.529 2.071-.529.758 0 1.406.213.651.214 1.155.623.503.404.818.993.32.588.409 1.346m1.323 5.672v-8.727h1.845v7.206h3.742V755zm8.654-8.727V755h-1.845v-8.727zm8.818 0V755h-1.594l-3.797-5.493h-.064V755h-1.845v-8.727h1.619l3.767 5.488h.077v-5.488zm3.369 0V755h-1.845v-8.727zm9.219 3.055h-1.867a1.8 1.8 0 0 0-.209-.643 1.6 1.6 0 0 0-.404-.486 1.8 1.8 0 0 0-.571-.307 2.2 2.2 0 0 0-.695-.106q-.678 0-1.18.336-.504.333-.78.972-.277.635-.277 1.542 0 .934.277 1.569.281.634.784.958a2.1 2.1 0 0 0 1.163.324q.37 0 .686-.098a1.8 1.8 0 0 0 .567-.285q.247-.192.409-.465.167-.273.23-.622l1.867.009q-.073.6-.362 1.159-.286.553-.772.993a3.7 3.7 0 0 1-1.15.69 4.2 4.2 0 0 1-1.505.251q-1.167 0-2.088-.528-.915-.528-1.449-1.53-.528-1.002-.528-2.425 0-1.427.537-2.429t1.457-1.525q.92-.529 2.071-.529.759 0 1.407.213.651.214 1.154.623.503.404.819.993.32.588.409 1.346"/><path fill="#e2e8f0" stroke="#94a3b8" stroke-width="1.5" d="M402.941 500H279.059c-1.69 0-3.059 1.791-3.059 4v82c0 2.209 1.369 4 3.059 4h123.882c1.69 0 3.059-1.791 3.059-4v-82c0-2.209-1.369-4-3.059-4Z"/><path fill="#1a202c" d="M323.065 534.524q-.053-.537-.458-.835-.403-.297-1.096-.297-.471 0-.795.133a1.13 1.13 0 0 0-.497.359.87.87 0 0 0-.168.524.75.75 0 0 0 .102.426q.115.183.315.316.2.128.461.226.262.093.56.16l.816.195q.596.133 1.092.355.498.222.862.546.363.324.563.764.204.439.209 1.007-.004.835-.426 1.447-.417.609-1.208.946-.785.333-1.895.333-1.1 0-1.918-.338-.811-.337-1.269-.998-.453-.666-.475-1.647h1.86q.031.457.262.763.235.302.626.457.394.151.892.151a2.3 2.3 0 0 0 .848-.142q.363-.141.563-.395a.9.9 0 0 0 .2-.581.75.75 0 0 0-.182-.515 1.4 1.4 0 0 0-.524-.355 5 5 0 0 0-.839-.267l-.989-.248q-1.15-.28-1.816-.875-.666-.594-.661-1.602-.005-.825.439-1.443.448-.616 1.23-.963.781-.346 1.775-.346 1.013 0 1.767.346.76.346 1.181.963.422.618.435 1.43zm11.613 1.931q0 1.486-.564 2.53-.56 1.043-1.527 1.593-.963.546-2.166.546-1.212 0-2.175-.55t-1.523-1.594-.559-2.525q0-1.487.559-2.531.56-1.043 1.523-1.589.963-.55 2.175-.55 1.203 0 2.166.55.967.546 1.527 1.589.564 1.043.564 2.531m-1.949 0q0-.964-.288-1.625-.285-.661-.804-1.003t-1.216-.342-1.216.342q-.52.342-.808 1.003-.285.661-.284 1.625 0 .963.284 1.624.288.662.808 1.003.519.342 1.216.342t1.216-.342.804-1.003q.288-.661.288-1.624m11.394-1.363h-1.944a1.9 1.9 0 0 0-.218-.67 1.7 1.7 0 0 0-.422-.507 1.9 1.9 0 0 0-.594-.319 2.3 2.3 0 0 0-.724-.111q-.706 0-1.23.351-.524.346-.812 1.012-.288.661-.288 1.607 0 .972.288 1.633.293.661.817.999.523.337 1.212.337.386 0 .714-.102.333-.102.591-.297.257-.2.426-.484.172-.285.24-.648l1.944.009a3.626 3.626 0 0 1-1.181 2.241 3.8 3.8 0 0 1-1.198.719 4.4 4.4 0 0 1-1.567.262q-1.216 0-2.175-.55-.955-.55-1.51-1.594-.55-1.043-.55-2.525 0-1.487.559-2.531.56-1.043 1.518-1.589.959-.55 2.158-.55.79 0 1.464.222.68.222 1.203.648.525.422.853 1.034.333.612.426 1.403m3.3-3.183V541h-1.922v-9.091zm3.148 9.091h-2.059l3.138-9.091h2.477l3.134 9.091h-2.06l-2.277-7.013h-.071zm-.128-3.573h4.865v1.5h-4.865zm7.912 3.573v-9.091h1.922v7.506h3.897V541zM313.795 560v-9.091h1.922v7.506h3.898V560zm15.093-4.545q0 1.486-.564 2.53-.56 1.043-1.527 1.593-.963.546-2.166.546-1.212 0-2.175-.55-.964-.55-1.523-1.594-.56-1.043-.559-2.525 0-1.487.559-2.531.559-1.043 1.523-1.589.963-.55 2.175-.55 1.203 0 2.166.55.967.546 1.527 1.589.564 1.043.564 2.531m-1.949 0q0-.964-.289-1.625-.284-.661-.803-1.003t-1.216-.342-1.217.342-.807 1.003q-.285.661-.285 1.625 0 .963.285 1.624.288.662.807 1.003.52.342 1.217.342t1.216-.342.803-1.003q.29-.661.289-1.624m8.988-4.546h1.922v5.904q0 .995-.475 1.74a3.2 3.2 0 0 1-1.319 1.163q-.847.413-1.975.413-1.132 0-1.98-.413a3.2 3.2 0 0 1-1.318-1.163q-.471-.745-.471-1.74v-5.904h1.922v5.74q0 .52.227.923.231.404.648.635t.972.231q.56 0 .972-.231.417-.231.644-.635.231-.404.231-.923zm11.107 0V560h-1.66l-3.955-5.722h-.067V560h-1.922v-9.091h1.687l3.924 5.717h.08v-5.717zm7.616 2.939a2 2 0 0 0-.262-.573 1.777 1.777 0 0 0-.963-.697 2.3 2.3 0 0 0-.679-.093 2.2 2.2 0 0 0-1.225.346q-.525.346-.817 1.008-.294.657-.293 1.607 0 .95.288 1.615.29.666.817 1.017.528.346 1.247.346.653 0 1.115-.231.465-.234.71-.661.249-.426.248-1.008l.391.058h-2.344v-1.447h3.804v1.145q0 1.199-.506 2.06a3.45 3.45 0 0 1-1.393 1.323q-.888.46-2.033.461-1.279 0-2.247-.563a3.9 3.9 0 0 1-1.509-1.612q-.537-1.047-.537-2.486 0-1.104.32-1.97.324-.87.905-1.474a3.9 3.9 0 0 1 1.354-.919 4.4 4.4 0 0 1 1.674-.315q.772 0 1.438.226.666.222 1.181.631.519.408.847.972a3.3 3.3 0 0 1 .422 1.234zm3.481 6.152v-9.091h6.126v1.585h-4.204v2.166h3.889v1.585h-3.889v2.17h4.222V560z"/><path fill="#e2e8f0" stroke="#94a3b8" stroke-width="1.5" d="M402.941 660H279.059c-1.69 0-3.059 1.791-3.059 4v62c0 2.209 1.369 4 3.059 4h123.882c1.69 0 3.059-1.791 3.059-4v-62c0-2.209-1.369-4-3.059-4Z"/><path fill="#1a202c" d="M297.525 692.494v-1.585h7.466v1.585h-2.783V700h-1.9v-7.506zm8.696 7.506v-9.091h6.125v1.585h-4.203v2.166h3.888v1.585h-3.888v2.17h4.221V700zm12.585-6.476q-.054-.537-.457-.835-.404-.297-1.097-.297a2.1 2.1 0 0 0-.794.133 1.1 1.1 0 0 0-.497.359.86.86 0 0 0-.169.524.75.75 0 0 0 .102.426q.115.183.315.316.2.128.462.226.261.093.559.16l.817.195a6 6 0 0 1 1.092.355q.496.222.861.546.364.324.564.764.204.439.208 1.007-.004.835-.426 1.447-.417.609-1.207.946-.786.333-1.896.333-1.1 0-1.917-.338-.813-.337-1.27-.998-.452-.666-.475-1.647h1.86q.031.457.262.763.236.302.626.457.395.151.892.151.489 0 .848-.142a1.3 1.3 0 0 0 .564-.395.9.9 0 0 0 .2-.581.76.76 0 0 0-.182-.515 1.4 1.4 0 0 0-.524-.355 5.3 5.3 0 0 0-.839-.267l-.99-.248q-1.15-.28-1.816-.875-.665-.594-.661-1.602-.004-.825.44-1.443.447-.616 1.229-.963.781-.346 1.776-.346 1.011 0 1.766.346.76.346 1.181.963.421.618.435 1.43zm2.913-1.03v-1.585h7.466v1.585h-2.783V700h-1.9v-7.506zm10.618-1.585V700h-1.922v-9.091zm9.185 0V700h-1.66l-3.955-5.722h-.067V700h-1.922v-9.091h1.687l3.924 5.717h.08v-5.717zm7.616 2.939a2 2 0 0 0-.262-.573 1.6 1.6 0 0 0-.412-.426 1.8 1.8 0 0 0-.551-.271 2.3 2.3 0 0 0-.679-.093 2.2 2.2 0 0 0-1.225.346q-.524.346-.817 1.008-.293.657-.293 1.607t.289 1.615.816 1.017q.529.346 1.248.346.652 0 1.114-.231.466-.235.71-.661.249-.426.249-1.008l.39.058h-2.343v-1.447h3.804v1.145q0 1.199-.506 2.06a3.46 3.46 0 0 1-1.394 1.323q-.888.46-2.033.461-1.278 0-2.246-.563a3.9 3.9 0 0 1-1.509-1.612q-.538-1.047-.538-2.486 0-1.104.32-1.97.324-.87.906-1.474a3.9 3.9 0 0 1 1.353-.919 4.4 4.4 0 0 1 1.674-.315q.772 0 1.438.226.666.222 1.181.631.52.408.848.972.328.56.421 1.234zm6.375 6.152v-9.091h3.586q1.03 0 1.758.369.733.363 1.114 1.034.387.666.386 1.567 0 .905-.39 1.558a2.54 2.54 0 0 1-1.132.994q-.737.346-1.785.346h-2.401v-1.544h2.091q.55 0 .914-.151t.542-.453q.182-.301.182-.75 0-.453-.182-.764a1.12 1.12 0 0 0-.546-.47q-.364-.165-.919-.165h-1.296V700zm4.909-4.137 2.259 4.137h-2.121l-2.211-4.137zm11.648-.408q0 1.486-.564 2.53-.56 1.042-1.527 1.593-.963.546-2.166.546-1.212 0-2.175-.55t-1.523-1.594-.559-2.525q0-1.487.559-2.531.56-1.043 1.523-1.589.963-.55 2.175-.55 1.203 0 2.166.55.967.546 1.527 1.589.564 1.044.564 2.531m-1.949 0q0-.964-.289-1.625-.284-.661-.803-1.003t-1.216-.342-1.216.342-.808 1.003q-.284.661-.284 1.625 0 .963.284 1.624.288.662.808 1.003.519.342 1.216.342t1.216-.342.803-1.003q.29-.661.289-1.624m11.727 0q0 1.486-.564 2.53-.56 1.042-1.527 1.593-.963.546-2.166.546-1.212 0-2.175-.55-.964-.55-1.523-1.594-.56-1.043-.559-2.525 0-1.487.559-2.531.559-1.043 1.523-1.589.963-.55 2.175-.55 1.203 0 2.166.55.967.546 1.527 1.589.564 1.044.564 2.531m-1.949 0q0-.964-.289-1.625-.284-.661-.803-1.003t-1.216-.342-1.217.342-.808 1.003q-.284.661-.284 1.625 0 .963.284 1.624.29.662.808 1.003.52.342 1.217.342t1.216-.342.803-1.003q.29-.661.289-1.624m3.372-4.546h2.371l2.503 6.108h.107l2.503-6.108h2.371V700h-1.865v-5.917h-.075l-2.353 5.873h-1.269l-2.353-5.895h-.075V700h-1.865z"/><path fill="#e2e8f0" stroke="#94a3b8" stroke-width="1.5" d="M402.941 740H279.059c-1.69 0-3.059 1.791-3.059 4v62c0 2.209 1.369 4 3.059 4h123.882c1.69 0 3.059-1.791 3.059-4v-62c0-2.209-1.369-4-3.059-4Z"/><path fill="#1a202c" d="M315.339 770h-1.977l3.012-8.727h2.378l3.009 8.727h-1.977l-2.187-6.733h-.068zm-.124-3.43h4.671v1.44h-4.671zm14.886-2.242h-1.866a1.8 1.8 0 0 0-.209-.643 1.6 1.6 0 0 0-.405-.486 1.8 1.8 0 0 0-.571-.307 2.2 2.2 0 0 0-.694-.106q-.678 0-1.181.336-.502.333-.78.972-.276.635-.277 1.542 0 .934.277 1.569.281.634.785.958a2.1 2.1 0 0 0 1.163.324q.37 0 .686-.098a1.8 1.8 0 0 0 .567-.285 1.7 1.7 0 0 0 .409-.465q.166-.273.23-.622l1.866.009q-.072.6-.362 1.159-.285.553-.771.993a3.7 3.7 0 0 1-1.151.69 4.2 4.2 0 0 1-1.504.251q-1.167 0-2.088-.528-.917-.528-1.449-1.53-.528-1.002-.528-2.425 0-1.427.537-2.429.536-1.001 1.457-1.525.92-.529 2.071-.529.758 0 1.406.213.652.214 1.155.623.503.404.818.993.32.588.409 1.346m2.664 5.672h-1.978l3.013-8.727h2.378l3.009 8.727h-1.978l-2.186-6.733h-.068zm-.124-3.43h4.671v1.44h-4.671zm10.69 3.43h-3.094v-8.727h3.119q1.317 0 2.267.524a3.53 3.53 0 0 1 1.462 1.496q.516.975.516 2.335 0 1.363-.516 2.344a3.55 3.55 0 0 1-1.47 1.504q-.955.524-2.284.524m-1.249-1.581h1.172q.818 0 1.377-.29a1.86 1.86 0 0 0 .843-.907q.286-.619.286-1.594 0-.968-.286-1.581a1.85 1.85 0 0 0-.839-.904q-.558-.29-1.377-.289h-1.176zm6.886 1.581v-8.727h5.88v1.521h-4.035v2.08h3.733v1.521h-3.733v2.084h4.052V770zm7.347-8.727h2.276l2.403 5.863h.102l2.404-5.863h2.275V770h-1.789v-5.68h-.073l-2.258 5.637h-1.219l-2.259-5.659h-.072V770h-1.79zm12.826 0V770h-1.845v-8.727zm9.218 3.055h-1.866a1.8 1.8 0 0 0-.209-.643 1.6 1.6 0 0 0-.405-.486 1.8 1.8 0 0 0-.571-.307 2.2 2.2 0 0 0-.695-.106q-.677 0-1.18.336-.502.333-.78.972-.276.635-.277 1.542 0 .934.277 1.569.282.634.784.958.503.324 1.164.324.37 0 .686-.098a1.8 1.8 0 0 0 .567-.285 1.7 1.7 0 0 0 .409-.465q.165-.273.23-.622l1.866.009q-.072.6-.362 1.159-.285.553-.771.993a3.7 3.7 0 0 1-1.151.69 4.2 4.2 0 0 1-1.504.251q-1.168 0-2.088-.528-.916-.528-1.449-1.53-.528-1.002-.528-2.425 0-1.427.536-2.429.537-1.001 1.458-1.525.92-.529 2.071-.529.758 0 1.406.213.652.214 1.155.623.503.404.818.993.32.588.409 1.346M328.198 785.636q0 1.428-.541 2.429-.536 1.002-1.466 1.53-.924.524-2.079.524-1.164 0-2.088-.528t-1.462-1.53-.537-2.425q0-1.427.537-2.429t1.462-1.525q.924-.529 2.088-.529 1.155 0 2.079.529.93.524 1.466 1.525.541 1.002.541 2.429m-1.87 0q0-.924-.277-1.559-.273-.636-.772-.963-.498-.328-1.167-.328-.67 0-1.168.328-.499.327-.775.963-.273.635-.273 1.559 0 .925.273 1.56.276.635.775.963.498.328 1.168.328t1.167-.328q.5-.329.772-.963.276-.635.277-1.56m3.237 4.364v-8.727h5.779v1.521h-3.934v2.08h3.55v1.521h-3.55V790zm7.02 0v-8.727h5.778v1.521h-3.933v2.08h3.55v1.521h-3.55V790zm8.864-8.727V790h-1.845v-8.727zm9.219 3.055h-1.867a1.8 1.8 0 0 0-.208-.643 1.7 1.7 0 0 0-.405-.486 1.8 1.8 0 0 0-.571-.307 2.2 2.2 0 0 0-.695-.106q-.678 0-1.18.336-.504.333-.78.972-.277.635-.277 1.542 0 .934.277 1.569.281.634.784.958a2.1 2.1 0 0 0 1.163.324q.37 0 .686-.098a1.8 1.8 0 0 0 .567-.285q.247-.192.409-.465.167-.273.23-.622l1.867.009q-.073.6-.362 1.159-.286.553-.772.993a3.7 3.7 0 0 1-1.15.69 4.2 4.2 0 0 1-1.505.251q-1.167 0-2.088-.528-.915-.528-1.448-1.53-.53-1.002-.529-2.425 0-1.427.537-2.429t1.457-1.525q.92-.529 2.071-.529.759 0 1.407.213.651.214 1.155.623.502.404.818.993.32.588.409 1.346m1.323 5.672v-8.727h5.881v1.521h-4.036v2.08h3.733v1.521h-3.733v2.084h4.053V790z"/><path fill="#e2e8f0" stroke="#94a3b8" stroke-width="1.5" d="M636.376 500H489.624c-2.002 0-3.624 1.791-3.624 4v82c0 2.209 1.622 4 3.624 4h146.752c2.002 0 3.624-1.791 3.624-4v-82c0-2.209-1.622-4-3.624-4Z"/><path fill="#000" d="m530.949 512-1.591-5.818h.716l1.216 4.738h.057l1.238-4.738h.796l1.238 4.738h.057l1.216-4.738h.716L535.017 512h-.727l-1.284-4.636h-.046L531.676 512zm6.446 0v-4.364h.67V512zm.341-5.091a.47.47 0 0 1-.338-.133.43.43 0 0 1-.139-.321q0-.187.139-.321a.48.48 0 0 1 .338-.134q.195 0 .335.134a.42.42 0 0 1 .142.321.42.42 0 0 1-.142.321.47.47 0 0 1-.335.133m2.228 2.466V512h-.671v-4.364h.648v.682h.057q.153-.332.466-.534.312-.204.807-.204.443 0 .775.181.333.18.517.546.185.363.185.92V512h-.671v-2.727q0-.514-.267-.801-.267-.29-.733-.29-.321 0-.573.139a1 1 0 0 0-.395.406 1.34 1.34 0 0 0-.145.648m5.657 2.716q-.546 0-.963-.276a1.85 1.85 0 0 1-.654-.784q-.236-.508-.236-1.201 0-.689.236-1.194a1.83 1.83 0 0 1 .657-.781q.42-.275.971-.275.427 0 .673.142.25.138.381.318.134.176.207.29h.057v-2.148h.671V512h-.648v-.67h-.08a5 5 0 0 1-.21.301q-.136.178-.389.321-.253.14-.673.139m.091-.602q.403 0 .681-.211.279-.213.424-.588.144-.378.145-.872 0-.489-.142-.855a1.25 1.25 0 0 0-.421-.574 1.12 1.12 0 0 0-.687-.207q-.426 0-.711.219-.28.216-.423.588a2.3 2.3 0 0 0-.139.829q0 .466.142.847.145.378.426.602.283.222.705.222m5.002.602q-.59 0-1.036-.281a1.9 1.9 0 0 1-.694-.787q-.246-.505-.247-1.182 0-.682.247-1.19.25-.509.694-.79a1.9 1.9 0 0 1 1.036-.281q.591 0 1.035.281.446.281.693.79.25.508.25 1.19 0 .677-.25 1.182a1.9 1.9 0 0 1-.693.787 1.9 1.9 0 0 1-1.035.281m0-.602q.45 0 .739-.23.29-.231.429-.606.14-.375.139-.812 0-.438-.139-.815a1.4 1.4 0 0 0-.429-.611q-.29-.233-.739-.233-.448 0-.738.233a1.4 1.4 0 0 0-.429.611 2.3 2.3 0 0 0-.139.815q0 .438.139.812.14.375.429.606.29.23.738.23m3.841.511-1.329-4.364h.704l.944 3.341h.045l.932-3.341h.716l.92 3.33h.046l.943-3.33h.704L557.851 512h-.659l-.955-3.352h-.068l-.955 3.352zm8.603-3.386-.603.17a1.1 1.1 0 0 0-.167-.293.8.8 0 0 0-.296-.238 1.1 1.1 0 0 0-.48-.094q-.4 0-.667.185-.265.181-.265.463a.48.48 0 0 0 .182.395q.182.145.568.241l.648.159q.585.142.872.435.288.29.287.747 0 .375-.216.671a1.43 1.43 0 0 1-.596.465 2.2 2.2 0 0 1-.892.171q-.668 0-1.105-.29a1.28 1.28 0 0 1-.554-.846l.636-.16a.9.9 0 0 0 .344.529q.255.176.667.176.47 0 .745-.199.278-.201.278-.483a.5.5 0 0 0-.159-.38q-.159-.157-.489-.233l-.727-.171q-.6-.142-.881-.44a1.07 1.07 0 0 1-.278-.753q0-.37.207-.653.21-.285.571-.447.364-.16.824-.161.648 0 1.017.284.373.284.529.75m7.623-2.432V512h-.705v-5.08h-.034l-1.421.944v-.716l1.455-.966zm3.332 5.898q-.574 0-.989-.211a1.56 1.56 0 0 1-.639-.576 1.57 1.57 0 0 1-.224-.838q0-.364.153-.645.156-.285.429-.526.276-.245.634-.489l.84-.625q.248-.162.395-.346a.74.74 0 0 0 .151-.483q0-.222-.196-.429a.66.66 0 0 0-.509-.207.7.7 0 0 0-.392.113.8.8 0 0 0-.264.284.73.73 0 0 0-.094.353q0 .204.111.414.114.208.287.426l.364.444 2.67 3.261h-.807l-2.204-2.659-.557-.671a3.2 3.2 0 0 1-.398-.593 1.4 1.4 0 0 1-.147-.634q0-.392.173-.687.176-.299.491-.463.318-.168.745-.168.437 0 .752.17.317.168.486.446.171.276.171.6 0 .418-.208.724a2.4 2.4 0 0 1-.565.571l-1.159.864q-.392.29-.531.562-.14.273-.14.393 0 .272.143.508.141.236.4.381.258.144.605.145.33 0 .642-.14.313-.142.566-.409.255-.267.403-.642.15-.375.151-.843h.647q0 .579-.133.946-.134.366-.301.573a4 4 0 0 1-.27.31 1 1 0 0 0-.063.085l-.062.086q-.282.315-.71.471a2.5 2.5 0 0 1-.847.154m3.458-.08v-.511l1.92-2.103q.338-.369.557-.642.219-.275.324-.517a1.25 1.25 0 0 0 .108-.511.94.94 0 0 0-.545-.878 1.3 1.3 0 0 0-.569-.122q-.334 0-.585.139a.96.96 0 0 0-.383.384 1.2 1.2 0 0 0-.134.579h-.67q0-.511.236-.898a1.64 1.64 0 0 1 .642-.602 1.9 1.9 0 0 1 .917-.216q.511 0 .906.216.396.216.62.583.224.366.224.815 0 .32-.116.628a2.8 2.8 0 0 1-.398.679q-.281.372-.781.909l-1.307 1.398v.045h2.704V512zM492 528.07l5.818-1.591v.716l-4.738 1.216v.057l4.738 1.238v.796l-4.738 1.238v.057l4.738 1.216v.716L492 532.138v-.727l4.636-1.284v-.046L492 528.797zm0 6.446h4.364v.67H492zm5.091.341q0-.196.133-.338a.43.43 0 0 1 .321-.139q.188 0 .321.139a.48.48 0 0 1 .134.338.47.47 0 0 1-.134.335.42.42 0 0 1-.321.142.42.42 0 0 1-.321-.142.47.47 0 0 1-.133-.335m-2.466 2.228H492v-.671h4.364v.648h-.682v.057q.332.154.534.466.204.312.204.807 0 .443-.181.775-.18.333-.546.517-.363.185-.92.185H492v-.67h2.727q.514 0 .801-.268.29-.267.29-.732 0-.322-.139-.574a1 1 0 0 0-.406-.395 1.34 1.34 0 0 0-.648-.145m-2.716 5.657q0-.546.276-.963a1.86 1.86 0 0 1 .784-.654q.508-.235 1.201-.235.689 0 1.194.235.505.236.781.657.275.42.275.971 0 .427-.142.673a1.1 1.1 0 0 1-.318.381 5 5 0 0 1-.29.208v.056h2.148v.671H492v-.648h.67v-.079a5 5 0 0 1-.301-.211 1.3 1.3 0 0 1-.321-.389q-.14-.253-.139-.673m.602.091q0 .403.211.682.213.278.588.423.378.144.872.145.489 0 .855-.142a1.25 1.25 0 0 0 .574-.421q.207-.278.207-.687 0-.426-.219-.71a1.3 1.3 0 0 0-.588-.424 2.3 2.3 0 0 0-.829-.139 2.4 2.4 0 0 0-.847.142 1.4 1.4 0 0 0-.602.426 1.1 1.1 0 0 0-.222.705m-.602 5.003q0-.591.281-1.037.282-.444.787-.694.505-.246 1.182-.247.682 0 1.19.247.509.25.79.694.281.446.281 1.037 0 .59-.281 1.034a1.9 1.9 0 0 1-.79.693q-.508.25-1.19.25-.677 0-1.182-.25a1.9 1.9 0 0 1-.787-.693 1.9 1.9 0 0 1-.281-1.034m.602 0q0 .448.23.738.231.29.606.429.375.14.812.139.438 0 .815-.139.378-.14.611-.429.233-.29.233-.738 0-.45-.233-.739a1.4 1.4 0 0 0-.611-.429 2.3 2.3 0 0 0-.815-.139q-.437 0-.812.139-.375.14-.606.429-.23.29-.23.739m-.511 3.84 4.364-1.329v.704l-3.341.944v.045l3.341.932v.716l-3.33.92v.046l3.33.943v.704L492 554.972v-.659l3.352-.955v-.068l-3.352-.954zm3.386 8.603-.17-.603a1.1 1.1 0 0 0 .293-.167.8.8 0 0 0 .238-.296q.094-.187.094-.48 0-.4-.185-.667-.181-.264-.463-.265a.48.48 0 0 0-.395.182q-.145.183-.241.568l-.159.648q-.142.585-.435.872-.29.288-.747.287a1.1 1.1 0 0 1-.671-.216 1.43 1.43 0 0 1-.465-.596 2.2 2.2 0 0 1-.171-.892q0-.668.29-1.105a1.28 1.28 0 0 1 .846-.554l.16.636a.9.9 0 0 0-.529.344q-.176.256-.176.667 0 .47.199.745.201.278.483.278a.5.5 0 0 0 .38-.159q.157-.159.233-.489l.171-.727q.142-.599.44-.881a1.07 1.07 0 0 1 .753-.278q.37 0 .653.207.285.211.447.571.16.364.161.824 0 .648-.284 1.017a1.53 1.53 0 0 1-.75.529m2.432 7.623H492v-.705h5.08v-.034l-.944-1.42h.716l.966 1.454zm0 3.718H492v-.704h5.08v-.034l-.944-1.421h.716l.966 1.455z"/><path fill="#1a202c" d="M528.207 542v-9.091h3.586q1.03 0 1.758.369.733.363 1.114 1.034.387.666.386 1.567 0 .905-.39 1.558a2.54 2.54 0 0 1-1.132.994q-.736.346-1.785.346h-2.401v-1.544h2.091q.55 0 .914-.151t.542-.453q.182-.301.182-.75 0-.453-.182-.764a1.12 1.12 0 0 0-.546-.47q-.364-.165-.919-.165h-1.296V542zm4.909-4.137 2.259 4.137h-2.121l-2.211-4.137zM536.41 542v-9.091h6.125v1.585h-4.203v2.166h3.888v1.585h-3.888v2.17h4.221V542zm13.682-6.152a2 2 0 0 0-.262-.573 1.772 1.772 0 0 0-.964-.697 2.3 2.3 0 0 0-.679-.093q-.697 0-1.225.346-.523.346-.817 1.008-.293.657-.293 1.607t.289 1.615.817 1.017q.528.346 1.247.346.652 0 1.114-.231.467-.234.71-.661.249-.426.249-1.008l.391.058h-2.344v-1.447h3.804v1.145q0 1.199-.506 2.06a3.45 3.45 0 0 1-1.394 1.323q-.888.46-2.033.461-1.278 0-2.246-.563a3.9 3.9 0 0 1-1.509-1.612q-.537-1.047-.537-2.486 0-1.104.319-1.97.324-.87.906-1.474a3.9 3.9 0 0 1 1.354-.919 4.4 4.4 0 0 1 1.673-.315q.773 0 1.438.226.666.222 1.181.631.52.408.848.972a3.3 3.3 0 0 1 .422 1.234zm5.403-2.939V542h-1.922v-9.091zm6.513 2.615q-.054-.537-.457-.835-.404-.297-1.097-.297a2.1 2.1 0 0 0-.794.133 1.1 1.1 0 0 0-.497.359.86.86 0 0 0-.169.524.75.75 0 0 0 .102.426q.115.183.315.316.2.128.462.226.262.093.559.16l.817.195a6 6 0 0 1 1.092.355q.497.222.861.546.365.324.564.764.204.439.208 1.007-.005.835-.426 1.447-.417.609-1.207.946-.786.333-1.896.333-1.101 0-1.917-.338-.813-.337-1.27-.998-.453-.666-.475-1.647h1.86q.031.457.262.763.236.302.626.457.395.151.892.151.488 0 .848-.142a1.3 1.3 0 0 0 .564-.395.9.9 0 0 0 .2-.581.76.76 0 0 0-.182-.515 1.4 1.4 0 0 0-.524-.355 5.3 5.3 0 0 0-.839-.267l-.99-.248q-1.15-.28-1.816-.875-.665-.594-.661-1.602-.004-.825.439-1.443.448-.616 1.23-.963.782-.346 1.776-.346 1.011 0 1.766.346.76.346 1.181.963.422.618.435 1.43zm2.913-1.03v-1.585h7.466v1.585h-2.783V542h-1.9v-7.506zm8.696 7.506v-9.091h3.586q1.03 0 1.758.369.733.363 1.114 1.034.387.666.387 1.567 0 .905-.391 1.558-.39.648-1.132.994-.737.346-1.784.346h-2.402v-1.544h2.091q.55 0 .914-.151t.542-.453q.182-.301.182-.75 0-.453-.182-.764a1.12 1.12 0 0 0-.546-.47q-.364-.165-.919-.165h-1.296V542zm4.909-4.137 2.26 4.137h-2.122l-2.211-4.137zm4.861 4.137h-2.06l3.139-9.091h2.476l3.134 9.091h-2.059l-2.278-7.013h-.071zm-.129-3.573h4.865v1.5h-4.865zM591.17 542v-9.091h3.587q1.03 0 1.758.369.733.363 1.114 1.034.387.666.386 1.567 0 .905-.39 1.558a2.54 2.54 0 0 1-1.132.994q-.736.346-1.785.346h-2.401v-1.544h2.091q.55 0 .914-.151t.542-.453q.182-.301.182-.75 0-.453-.182-.764a1.12 1.12 0 0 0-.546-.47q-.364-.165-.919-.165h-1.296V542zm4.91-4.137 2.259 4.137h-2.121l-2.211-4.137zM549.165 556.455q0 1.486-.564 2.53-.56 1.043-1.527 1.593-.963.546-2.166.546-1.212 0-2.175-.55t-1.523-1.594q-.558-1.043-.559-2.525 0-1.487.559-2.531.56-1.043 1.523-1.589.963-.55 2.175-.55 1.203 0 2.166.55.967.546 1.527 1.589.564 1.043.564 2.531m-1.949 0q0-.964-.288-1.625-.284-.661-.804-1.003-.519-.342-1.216-.342t-1.216.342-.808 1.003q-.284.661-.284 1.625 0 .963.284 1.624.288.662.808 1.003.519.342 1.216.342t1.216-.342.804-1.003q.288-.661.288-1.624m3.373 4.545v-9.091h6.019v1.585h-4.097v2.166h3.697v1.585h-3.697V561zm7.312 0v-9.091h6.019v1.585h-4.097v2.166h3.697v1.585h-3.697V561zm9.234-9.091V561h-1.922v-9.091zm9.602 3.183h-1.944a1.9 1.9 0 0 0-.217-.67 1.73 1.73 0 0 0-1.017-.826 2.3 2.3 0 0 0-.724-.111q-.705 0-1.229.351-.524.346-.812 1.012-.29.661-.289 1.607 0 .972.289 1.633.293.661.816.999.524.337 1.212.337a2.4 2.4 0 0 0 .715-.102q.333-.102.59-.297.258-.2.426-.484.174-.285.24-.648l1.944.009q-.075.625-.377 1.207a3.6 3.6 0 0 1-.803 1.034 3.8 3.8 0 0 1-1.199.719 4.4 4.4 0 0 1-1.567.262q-1.216 0-2.175-.55-.954-.55-1.509-1.594-.55-1.043-.551-2.525 0-1.487.56-2.531.56-1.043 1.518-1.589.958-.55 2.157-.55.79 0 1.465.222.68.222 1.203.648.524.422.852 1.034.333.612.426 1.403m1.379 5.908v-9.091h6.125v1.585h-4.203v2.166h3.888v1.585h-3.888v2.17h4.221V561z"/><path fill="#e2e8f0" stroke="#94a3b8" stroke-width="1.5" d="M552 599h-62c-2.209 0-4 1.88-4 4.2v201.6c0 2.32 1.791 4.2 4 4.2h62c2.209 0 4-1.88 4-4.2V603.2c0-2.32-1.791-4.2-4-4.2Z"/><path fill="#000" d="m490 676.875 5.818-1.591V676l-4.738 1.216v.056l4.738 1.239v.795l-4.738 1.239v.057l4.738 1.216v.716L490 680.943v-.727l4.636-1.285v-.045L490 677.602zm0 6.446h4.364v.67H490zm5.091.341q0-.197.133-.338a.43.43 0 0 1 .321-.14q.188 0 .321.14a.48.48 0 0 1 .134.338q0 .195-.134.335a.42.42 0 0 1-.321.142.42.42 0 0 1-.321-.142.47.47 0 0 1-.133-.335m-2.466 2.228H490v-.671h4.364v.648h-.682v.057q.332.153.534.466.204.312.204.806 0 .443-.181.776-.18.333-.546.517-.363.185-.92.185H490v-.671h2.727q.514 0 .801-.267.29-.267.29-.733a1.2 1.2 0 0 0-.139-.574 1 1 0 0 0-.406-.395 1.35 1.35 0 0 0-.648-.144m-2.716 5.657q0-.546.276-.964.278-.417.784-.653.508-.236 1.201-.236.689 0 1.194.236t.781.656q.275.42.275.972 0 .426-.142.673a1.1 1.1 0 0 1-.318.381 5 5 0 0 1-.29.207v.057h2.148v.671H490v-.648h.67v-.08a5 5 0 0 1-.301-.21 1.3 1.3 0 0 1-.321-.389q-.14-.253-.139-.673m.602.09q0 .404.211.682.213.279.588.424.378.144.872.144.489 0 .855-.142.369-.141.574-.42.207-.279.207-.688 0-.426-.219-.71a1.3 1.3 0 0 0-.588-.423 2.3 2.3 0 0 0-.829-.139 2.4 2.4 0 0 0-.847.142 1.4 1.4 0 0 0-.602.426 1.1 1.1 0 0 0-.222.704m-.602 5.003q0-.59.281-1.037a1.9 1.9 0 0 1 .787-.693q.505-.247 1.182-.247.682 0 1.19.247.509.25.79.693a1.9 1.9 0 0 1 .281 1.037q0 .591-.281 1.034a1.9 1.9 0 0 1-.79.694q-.508.25-1.19.25-.677 0-1.182-.25a1.9 1.9 0 0 1-.787-.694 1.9 1.9 0 0 1-.281-1.034m.602 0q0 .45.23.739.231.29.606.429.375.14.812.139.438 0 .815-.139.378-.14.611-.429.233-.29.233-.739 0-.448-.233-.738a1.36 1.36 0 0 0-.611-.429 2.3 2.3 0 0 0-.815-.14q-.437 0-.812.14a1.35 1.35 0 0 0-.606.429q-.23.29-.23.738m-.511 3.841 4.364-1.329v.704l-3.341.943v.046l3.341.932v.716l-3.33.92v.045l3.33.944v.704L490 703.777v-.659l3.352-.955v-.068L490 701.14zm3.386 8.602-.17-.602q.15-.057.293-.167a.8.8 0 0 0 .238-.296q.094-.187.094-.48 0-.4-.185-.668-.181-.264-.463-.264a.48.48 0 0 0-.395.182q-.145.182-.241.568l-.159.648q-.142.585-.435.872-.29.287-.747.287a1.1 1.1 0 0 1-.671-.216 1.4 1.4 0 0 1-.465-.597 2.2 2.2 0 0 1-.171-.892q0-.667.29-1.105t.846-.554l.16.637a.9.9 0 0 0-.529.343q-.176.256-.176.668 0 .47.199.744.201.279.483.279a.5.5 0 0 0 .38-.159q.157-.159.233-.489l.171-.727q.142-.6.44-.881a1.07 1.07 0 0 1 .753-.278q.37 0 .653.207.285.21.447.571.16.364.161.824 0 .648-.284 1.017a1.53 1.53 0 0 1-.75.528m2.432 7.623H490v-.704h5.08v-.034l-.944-1.421h.716l.966 1.455zM490 718.38h.511l2.103 1.92q.369.338.642.557.275.219.517.324.244.108.511.108a.95.95 0 0 0 .878-.546q.122-.252.122-.568 0-.335-.139-.585a.96.96 0 0 0-.384-.384 1.2 1.2 0 0 0-.579-.133v-.671q.511 0 .898.236.386.236.602.642.216.41.216.918 0 .512-.216.906-.216.395-.583.619-.366.225-.815.225-.32 0-.628-.117a2.8 2.8 0 0 1-.679-.397 12 12 0 0 1-.909-.782l-1.398-1.306h-.045v2.704H490zm3.222 7.355h-.625v-2.546h.625zm2.596 3.214H490v-.705h5.08v-.034l-.944-1.421h.716l.966 1.455zm-5.898 3.491q0-.5.199-.901.2-.4.546-.642.346-.241.79-.264v.682a.94.94 0 0 0-.654.358q-.255.321-.256.767a1.2 1.2 0 0 0 .628 1.077q.296.162.668.162.38 0 .679-.168a1.2 1.2 0 0 0 .474-.455q.174-.29.176-.661a1.8 1.8 0 0 0-.082-.549 1.5 1.5 0 0 0-.213-.463l.08-.659 2.863.352v3.023h-.625v-2.432l-1.716-.204v.034q.143.179.236.449.094.27.094.562 0 .534-.256.952-.252.42-.693.659a2.06 2.06 0 0 1-1.006.241q-.556 0-.994-.25a1.83 1.83 0 0 1-.688-.681q-.25-.435-.25-.989"/><path fill="#1a202c" d="M549 777.319h-7.273v-2.869q0-.824.295-1.406.291-.586.827-.892.533-.309 1.254-.309.724 0 1.246.313.519.312.796.905.277.59.277 1.428v1.921h-1.236v-1.673q0-.44-.121-.731a.86.86 0 0 0-.362-.433 1.15 1.15 0 0 0-.6-.146q-.362 0-.611.146a.9.9 0 0 0-.376.436q-.132.293-.132.735v1.037H549zm-3.31-3.927 3.31-1.808v1.697l-3.31 1.769zm3.31-2.635h-7.273v-4.901h1.268v3.363h1.733v-3.111h1.268v3.111h1.736v-3.377H549zm-4.922-10.946q-.259.075-.458.21-.203.135-.341.33a1.4 1.4 0 0 0-.217.44 1.9 1.9 0 0 0-.074.544q0 .557.277.98.277.419.806.653.525.234 1.286.234.76 0 1.292-.23.533-.231.813-.654.277-.423.277-.998 0-.522-.184-.891a1.32 1.32 0 0 0-.529-.568 1.57 1.57 0 0 0-.807-.199l.047-.313v1.875h-1.158v-3.043h.916q.959 0 1.648.405.686.405 1.058 1.115.369.71.369 1.626 0 1.023-.451 1.797a3.13 3.13 0 0 1-1.289 1.208q-.837.429-1.988.429-.885 0-1.577-.255a3.4 3.4 0 0 1-1.179-.725 3.1 3.1 0 0 1-.735-1.083 3.5 3.5 0 0 1-.252-1.339q0-.618.181-1.15a3 3 0 0 1 .504-.945q.327-.416.778-.678.447-.263.987-.337zm-2.351-4.323H549v1.538h-7.273zm2.092-5.21a.9.9 0 0 0-.668.366q-.238.323-.238.877 0 .376.107.636a.9.9 0 0 0 .288.397.7.7 0 0 0 .419.135.6.6 0 0 0 .34-.081.85.85 0 0 0 .253-.253q.102-.159.181-.369a4 4 0 0 0 .128-.447l.156-.654a4.6 4.6 0 0 1 .284-.873 2.6 2.6 0 0 1 .437-.689q.26-.291.61-.451.352-.164.807-.167.668.003 1.157.341.487.333.757.966.266.628.266 1.516 0 .881-.27 1.534-.27.65-.799 1.016-.533.362-1.317.38v-1.488a1.1 1.1 0 0 0 .61-.21q.241-.188.366-.5a2 2 0 0 0 .121-.714 1.8 1.8 0 0 0-.114-.678 1 1 0 0 0-.316-.451.73.73 0 0 0-.465-.16.6.6 0 0 0-.412.145 1.1 1.1 0 0 0-.284.419 4.3 4.3 0 0 0-.213.672l-.199.791q-.223.92-.699 1.453-.477.532-1.282.529a1.9 1.9 0 0 1-1.155-.352 2.37 2.37 0 0 1-.77-.983 3.5 3.5 0 0 1-.277-1.421q0-.81.277-1.413.276-.608.77-.945a2.04 2.04 0 0 1 1.144-.348zm-.824-2.33h-1.268v-5.973h1.268v2.226H549v1.52h-6.005zm6.005-6.957h-7.273v-2.869q0-.824.295-1.407.291-.585.827-.891.533-.309 1.254-.309.724 0 1.246.313.519.312.796.905.277.59.277 1.428v1.921h-1.236v-1.673q0-.44-.121-.731a.87.87 0 0 0-.362-.434 1.14 1.14 0 0 0-.6-.145q-.362 0-.611.145a.9.9 0 0 0-.376.437q-.132.291-.132.735v1.037H549zm-3.31-3.928 3.31-1.807v1.697l-3.31 1.769zm3.31-3.888v1.648l-7.273-2.511v-1.982l7.273-2.507v1.648l-5.611 1.822v.057zm-2.859.103v-3.892h1.201v3.892zm2.859-6.33h-7.273v-2.869q0-.824.295-1.407.291-.585.827-.891.533-.309 1.254-.309.724 0 1.246.313.519.312.796.905.277.59.277 1.428v1.921h-1.236v-1.673q0-.44-.121-.731a.86.86 0 0 0-.362-.433 1.14 1.14 0 0 0-.6-.146q-.362 0-.611.146a.9.9 0 0 0-.376.436q-.132.291-.132.735v1.037H549zm-3.31-3.928 3.31-1.807v1.697l-3.31 1.769zm-.326-11.632q1.189 0 2.024.451a3.13 3.13 0 0 1 1.275 1.221q.436.771.436 1.733 0 .97-.44 1.74-.44.771-1.275 1.218-.835.448-2.02.448-1.19 0-2.025-.448a3.1 3.1 0 0 1-1.271-1.218 3.45 3.45 0 0 1-.44-1.74q0-.962.44-1.733a3.1 3.1 0 0 1 1.271-1.221q.836-.451 2.025-.451m0 1.559q-.77 0-1.3.231-.529.226-.803.642a1.73 1.73 0 0 0-.273.973q0 .558.273.973.274.416.803.647.53.227 1.3.227t1.299-.227q.53-.231.803-.647a1.73 1.73 0 0 0 .273-.973q0-.557-.273-.973t-.803-.642q-.529-.231-1.299-.231m3.636-2.698h-7.273v-4.816h1.268v3.278h1.733v-2.958h1.268v2.958H549zm0-5.85h-7.273v-4.815h1.268v3.278h1.733v-2.959h1.268v2.959H549zm-7.273-7.387H549v1.538h-7.273zm2.546-7.682v1.555q-.302.044-.536.174a1.4 1.4 0 0 0-.405.338 1.5 1.5 0 0 0-.255.476 1.8 1.8 0 0 0-.089.578q0 .566.28.984.278.419.81.65.529.231 1.286.231.777 0 1.306-.231.53-.234.799-.654.27-.418.27-.969 0-.31-.081-.572a1.5 1.5 0 0 0-.238-.472 1.4 1.4 0 0 0-.387-.341 1.5 1.5 0 0 0-.519-.192l.007-1.555q.501.06.966.302.462.237.828.643.362.401.575.958.21.554.209 1.254 0 .974-.44 1.74a3.1 3.1 0 0 1-1.275 1.207q-.835.441-2.02.441-1.19 0-2.025-.448a3.1 3.1 0 0 1-1.271-1.214 3.4 3.4 0 0 1-.44-1.726q0-.633.177-1.172.179-.543.519-.962.338-.42.827-.682a3.1 3.1 0 0 1 1.122-.341m4.727-1.103h-7.273v-4.9h1.268v3.363h1.733v-3.111h1.268v3.111h1.736v-3.378H549zm-7.614-9.262 8.708 2.344v1.303l-8.708-2.344zm7.614-2.482-7.273 2.081v-1.68l5.054-1.204v-.06l-5.054-1.328v-1.438l5.064-1.325v-.064l-5.064-1.204v-1.68l7.273 2.081v1.499l-4.755 1.385v.057l4.755 1.381zm-7.273-10.262H549v1.538h-7.273zm0-7.348H549v1.328l-4.577 3.164v.053H549v1.538h-7.273v-1.35l4.574-3.139v-.064h-4.574zm7.273-3.849v2.578h-7.273v-2.599q0-1.097.437-1.889a2.94 2.94 0 0 1 1.247-1.218q.813-.43 1.946-.43 1.135 0 1.953.43a2.95 2.95 0 0 1 1.253 1.225q.437.795.437 1.903m-1.317 1.041v-.977q0-.681-.242-1.147a1.55 1.55 0 0 0-.756-.703q-.515-.238-1.328-.238-.807 0-1.318.238a1.54 1.54 0 0 0-.753.7q-.241.465-.241 1.147v.98zm-2.319-12.421q1.189 0 2.024.451a3.13 3.13 0 0 1 1.275 1.221q.436.771.436 1.733 0 .97-.44 1.74-.44.771-1.275 1.218-.835.448-2.02.448-1.19 0-2.025-.448a3.1 3.1 0 0 1-1.271-1.218 3.45 3.45 0 0 1-.44-1.74q0-.962.44-1.733a3.1 3.1 0 0 1 1.271-1.221q.836-.451 2.025-.451m0 1.559q-.77 0-1.3.23-.529.228-.803.643a1.73 1.73 0 0 0-.273.973q0 .558.273.973.274.416.803.647.53.227 1.3.227t1.299-.227q.53-.231.803-.647a1.73 1.73 0 0 0 .273-.973 1.73 1.73 0 0 0-.273-.973q-.273-.415-.803-.643-.529-.23-1.299-.23m3.636-4.062-7.273 2.081v-1.68l5.054-1.204v-.06l-5.054-1.328v-1.438l5.064-1.325v-.064l-5.064-1.204v-1.679l7.273 2.081v1.498l-4.755 1.385v.057l4.755 1.381z"/><path fill="#e2e8f0" stroke="#94a3b8" stroke-width="1.5" d="M637.533 738h-71.066c-1.915 0-3.467 1.791-3.467 4v62c0 2.209 1.552 4 3.467 4h71.066c1.915 0 3.467-1.791 3.467-4v-62c0-2.209-1.552-4-3.467-4ZM637.533 660h-71.066c-1.915 0-3.467 1.791-3.467 4v62c0 2.209 1.552 4 3.467 4h71.066c1.915 0 3.467-1.791 3.467-4v-62c0-2.209-1.552-4-3.467-4Z"/><path fill="#1a202c" d="M593.953 771.092h-1.944a1.9 1.9 0 0 0-.217-.67 1.7 1.7 0 0 0-.422-.507 1.9 1.9 0 0 0-.595-.319 2.3 2.3 0 0 0-.723-.111q-.707 0-1.23.351-.524.346-.812 1.012-.29.661-.289 1.607 0 .972.289 1.633.293.661.816.999.525.337 1.212.337a2.4 2.4 0 0 0 .715-.102q.333-.102.59-.297.258-.2.426-.484.174-.285.24-.648l1.944.009q-.075.625-.377 1.207a3.6 3.6 0 0 1-.803 1.034 3.8 3.8 0 0 1-1.199.719 4.4 4.4 0 0 1-1.567.262q-1.216 0-2.175-.55-.954-.55-1.509-1.594-.55-1.043-.551-2.525 0-1.487.56-2.531.56-1.043 1.518-1.589.958-.55 2.157-.55.79 0 1.465.222.68.222 1.203.648.524.422.852 1.034.333.612.426 1.403m4.601 5.908h-3.222v-9.091h3.249q1.372 0 2.361.546.99.541 1.523 1.558.537 1.017.537 2.433 0 1.42-.537 2.441a3.7 3.7 0 0 1-1.531 1.567q-.994.546-2.38.546m-1.3-1.647h1.22q.853 0 1.434-.302.587-.306.879-.945.297-.644.297-1.66 0-1.008-.297-1.647a1.93 1.93 0 0 0-.874-.941q-.582-.302-1.434-.302h-1.225zm10.812-7.444h1.9v6.339q0 .879-.395 1.527a2.6 2.6 0 0 1-1.088.999q-.697.35-1.62.35a3.7 3.7 0 0 1-1.492-.288 2.4 2.4 0 0 1-1.056-.888q-.391-.6-.386-1.505h1.913q.01.36.146.617.143.253.387.391.248.133.585.133.356 0 .6-.151a.98.98 0 0 0 .377-.453q.129-.297.129-.732zm3.489 9.091v-9.091h3.586q1.034 0 1.763.395.728.391 1.109 1.088.387.692.387 1.598 0 .905-.391 1.598-.39.692-1.132 1.078-.737.387-1.784.387h-2.286v-1.541h1.975q.555 0 .914-.191.364-.195.542-.537.182-.346.182-.794a1.64 1.64 0 0 0-.182-.79 1.22 1.22 0 0 0-.542-.529q-.363-.19-.923-.191h-1.296V777z"/><path fill="#e2e8f0" stroke="#94a3b8" stroke-width="1.5" d="M892.471 500H749.529c-1.949 0-3.529 1.791-3.529 4v82c0 2.209 1.58 4 3.529 4h142.942c1.949 0 3.529-1.791 3.529-4v-82c0-2.209-1.58-4-3.529-4Z"/><path fill="#1a202c" d="M786.308 542h-1.978l3.013-8.727h2.378L792.73 542h-1.978l-2.186-6.733h-.068zm-.124-3.43h4.671v1.44h-4.671zm14.886-2.242h-1.866a1.8 1.8 0 0 0-.209-.643 1.6 1.6 0 0 0-.405-.486 1.8 1.8 0 0 0-.571-.307 2.2 2.2 0 0 0-.695-.106q-.677 0-1.18.336-.503.333-.78.972-.277.635-.277 1.542 0 .934.277 1.569.282.634.784.958a2.1 2.1 0 0 0 1.164.324q.37 0 .686-.098.32-.098.566-.285.248-.192.41-.465.165-.273.23-.622l1.866.009q-.072.6-.362 1.159-.286.553-.771.993a3.7 3.7 0 0 1-1.151.69 4.2 4.2 0 0 1-1.504.251q-1.168 0-2.088-.528-.917-.528-1.449-1.53-.528-1.002-.529-2.425 0-1.427.537-2.429t1.458-1.525q.92-.528 2.071-.529.758 0 1.406.213.653.214 1.155.623.503.404.818.993.32.588.409 1.346m9.024 0h-1.867a1.8 1.8 0 0 0-.209-.643 1.6 1.6 0 0 0-.405-.486 1.8 1.8 0 0 0-.571-.307 2.2 2.2 0 0 0-.694-.106q-.677 0-1.181.336-.503.333-.779.972-.277.635-.277 1.542 0 .934.277 1.569.28.634.784.958a2.1 2.1 0 0 0 1.163.324q.37 0 .686-.098a1.8 1.8 0 0 0 .567-.285q.247-.192.409-.465.166-.273.23-.622l1.867.009q-.073.6-.363 1.159-.285.553-.771.993a3.7 3.7 0 0 1-1.151.69 4.2 4.2 0 0 1-1.504.251q-1.167 0-2.088-.528-.917-.528-1.449-1.53-.528-1.002-.528-2.425 0-1.427.537-2.429t1.457-1.525q.92-.528 2.071-.529.76 0 1.406.213.653.214 1.155.623.503.404.818.993.32.588.41 1.346m9.343 1.308q0 1.428-.542 2.429-.537 1.002-1.465 1.53-.925.524-2.08.524-1.164 0-2.088-.528t-1.462-1.53-.537-2.425q0-1.427.537-2.429t1.462-1.525q.924-.528 2.088-.529 1.155 0 2.08.529.928.524 1.465 1.525.542 1.002.542 2.429m-1.871 0q0-.924-.277-1.559-.273-.636-.771-.963a2.08 2.08 0 0 0-1.168-.328q-.669 0-1.168.328-.498.327-.775.963-.273.635-.273 1.559 0 .925.273 1.56.277.635.775.963.5.328 1.168.328.669 0 1.168-.328.498-.329.771-.963.277-.635.277-1.56m8.628-4.363h1.845v5.667q0 .955-.456 1.671a3.05 3.05 0 0 1-1.265 1.116q-.814.397-1.897.397-1.087 0-1.9-.397a3.05 3.05 0 0 1-1.266-1.116q-.452-.715-.452-1.671v-5.667h1.846v5.51q0 .499.217.886.222.389.622.609.4.222.933.222.537 0 .934-.222a1.54 1.54 0 0 0 .617-.609 1.75 1.75 0 0 0 .222-.886zm10.663 0V542h-1.594l-3.797-5.493h-.063V542h-1.846v-8.727h1.62l3.767 5.488h.076v-5.488zm1.192 1.521v-1.521h7.168v1.521h-2.672V542h-1.824v-7.206zm10.193-1.521V542h-1.845v-8.727zm8.818 0V542h-1.594l-3.796-5.493h-.064V542h-1.846v-8.727h1.62l3.767 5.488h.077v-5.488zm7.312 2.821a1.9 1.9 0 0 0-.252-.55 1.707 1.707 0 0 0-.925-.669 2.2 2.2 0 0 0-.651-.089q-.67 0-1.177.332-.502.332-.784.967-.28.631-.281 1.543 0 .912.277 1.551t.784.976q.507.332 1.198.332.626 0 1.069-.221.447-.227.682-.635.239-.409.239-.968l.375.056h-2.25v-1.389h3.652v1.099q0 1.15-.486 1.977-.486.823-1.338 1.27-.852.443-1.952.443-1.227 0-2.156-.541a3.76 3.76 0 0 1-1.449-1.547q-.516-1.005-.516-2.386 0-1.061.307-1.892a4 4 0 0 1 .869-1.415q.56-.579 1.3-.882a4.2 4.2 0 0 1 1.607-.303q.741 0 1.38.218.639.212 1.134.605.498.391.814.933.315.537.405 1.185zM810.198 556.636q0 1.428-.541 2.429-.537 1.002-1.466 1.53-.924.524-2.079.524-1.164 0-2.088-.528t-1.462-1.53-.537-2.425q0-1.427.537-2.429t1.462-1.525q.924-.528 2.088-.529 1.155 0 2.079.529.93.524 1.466 1.525.541 1.002.541 2.429m-1.87 0q0-.924-.277-1.559-.273-.636-.772-.963-.498-.328-1.167-.328-.67 0-1.168.328-.499.327-.775.963-.273.635-.273 1.559 0 .925.273 1.56.276.635.775.963.498.328 1.168.328t1.167-.328q.5-.329.772-.963.277-.635.277-1.56m3.237 4.364v-8.727h5.779v1.521h-3.934v2.08h3.55v1.521h-3.55V561zm7.02 0v-8.727h5.778v1.521h-3.933v2.08h3.55v1.521h-3.55V561zm8.864-8.727V561h-1.845v-8.727zm9.219 3.055h-1.867a1.8 1.8 0 0 0-.208-.643 1.7 1.7 0 0 0-.405-.486 1.8 1.8 0 0 0-.571-.307 2.2 2.2 0 0 0-.695-.106q-.678 0-1.18.336-.504.333-.78.972-.277.635-.277 1.542 0 .934.277 1.569.281.634.784.958a2.1 2.1 0 0 0 1.163.324q.37 0 .686-.098a1.8 1.8 0 0 0 .567-.285q.247-.192.409-.465.167-.273.23-.622l1.867.009q-.073.6-.362 1.159-.286.553-.772.993a3.7 3.7 0 0 1-1.15.69 4.2 4.2 0 0 1-1.505.251q-1.167 0-2.088-.528-.915-.528-1.448-1.53-.53-1.002-.529-2.425 0-1.427.537-2.429t1.457-1.525q.92-.528 2.071-.529.759 0 1.407.213.651.214 1.155.623.502.404.818.993.32.588.409 1.346m1.323 5.672v-8.727h5.881v1.521h-4.036v2.08h3.733v1.521h-3.733v2.084h4.053V561z"/><path fill="#e2e8f0" stroke="#94a3b8" stroke-width="1.5" d="M892.471 600H749.529c-1.949 0-3.529 1.791-3.529 4v82c0 2.209 1.58 4 3.529 4h142.942c1.949 0 3.529-1.791 3.529-4v-82c0-2.209-1.58-4-3.529-4Z"/><path fill="#1a202c" d="M766.094 633.273h2.276l2.403 5.863h.103l2.403-5.863h2.276V642h-1.79v-5.68h-.073l-2.258 5.637h-1.219l-2.258-5.659h-.073V642h-1.79zm12.826 0V642h-1.845v-8.727zm8.818 0V642h-1.594l-3.797-5.493h-.064V642h-1.845v-8.727h1.62l3.767 5.488h.076v-5.488zm3.37 0V642h-1.846v-8.727zm11.995 3.055h-1.866a1.8 1.8 0 0 0-.209-.643 1.6 1.6 0 0 0-.405-.486 1.8 1.8 0 0 0-.571-.307 2.2 2.2 0 0 0-.694-.106q-.678 0-1.181.336-.503.333-.78.972-.276.635-.277 1.542 0 .934.277 1.569.282.634.784.958.503.324 1.164.324.37 0 .686-.098a1.8 1.8 0 0 0 .567-.285 1.7 1.7 0 0 0 .409-.465q.166-.273.23-.622l1.866.009q-.072.6-.362 1.159-.285.553-.771.993a3.7 3.7 0 0 1-1.151.69 4.2 4.2 0 0 1-1.504.251q-1.167 0-2.088-.528-.916-.528-1.449-1.53-.528-1.002-.528-2.425 0-1.427.537-2.429.536-1.001 1.457-1.525.92-.528 2.071-.529.759 0 1.406.213.652.214 1.155.623.503.404.818.993.32.588.409 1.346m9.343 1.308q0 1.428-.541 2.429-.536 1.002-1.466 1.53-.924.524-2.079.524-1.164 0-2.088-.528t-1.462-1.53q-.537-1.002-.537-2.425 0-1.427.537-2.429t1.462-1.525q.924-.528 2.088-.529 1.155 0 2.079.529.93.524 1.466 1.525.541 1.002.541 2.429m-1.87 0q0-.924-.277-1.559-.273-.636-.772-.963-.498-.328-1.167-.328t-1.168.328q-.499.327-.775.963-.273.635-.273 1.559 0 .925.273 1.56.276.635.775.963.5.328 1.168.328.669 0 1.167-.328.5-.329.772-.963.276-.635.277-1.56m10.537-4.363V642h-1.594l-3.797-5.493h-.064V642h-1.845v-8.727h1.62l3.767 5.488h.076v-5.488zm1.524 8.727v-8.727h5.779v1.521h-3.933v2.08h3.549v1.521h-3.549V642zm7.02 0v-8.727h5.881v1.521h-4.036v2.08h3.733v1.521h-3.733v2.084h4.053V642zm7.348 0v-8.727h3.443q.988 0 1.687.353.704.35 1.07.993.37.64.371 1.505 0 .869-.375 1.495-.375.622-1.087.955-.708.332-1.713.332h-2.305v-1.483h2.007q.528 0 .877-.145.35-.144.52-.434.175-.29.175-.72 0-.435-.175-.733a1.07 1.07 0 0 0-.524-.452q-.35-.158-.882-.158h-1.244V642zm4.713-3.972 2.169 3.972h-2.037l-2.122-3.972zM844.88 642v-8.727h5.88v1.521h-4.035v2.08h3.733v1.521h-3.733v2.084h4.052V642zm14.647-8.727V642h-1.594l-3.797-5.493h-.064V642h-1.845v-8.727h1.62l3.767 5.488h.076v-5.488zm9.225 3.055h-1.867a1.8 1.8 0 0 0-.209-.643 1.6 1.6 0 0 0-.404-.486 1.8 1.8 0 0 0-.571-.307 2.2 2.2 0 0 0-.695-.106q-.678 0-1.18.336-.504.333-.78.972-.277.635-.277 1.542 0 .934.277 1.569.281.634.784.958a2.1 2.1 0 0 0 1.163.324q.37 0 .686-.098a1.8 1.8 0 0 0 .567-.285q.247-.192.409-.465.167-.273.23-.622l1.867.009q-.073.6-.362 1.159-.286.553-.772.993a3.7 3.7 0 0 1-1.15.69 4.2 4.2 0 0 1-1.505.251q-1.167 0-2.088-.528-.915-.528-1.449-1.53-.528-1.002-.528-2.425 0-1.427.537-2.429t1.457-1.525q.92-.528 2.071-.529.759 0 1.407.213.651.214 1.155.623.502.404.818.993.32.588.409 1.346m1.323 5.672v-8.727h5.881v1.521h-4.036v2.08h3.733v1.521h-3.733v2.084h4.053V642zM810.198 651.636q0 1.428-.541 2.429-.537 1.002-1.466 1.53-.924.524-2.079.524-1.164 0-2.088-.528t-1.462-1.53-.537-2.425q0-1.427.537-2.429t1.462-1.525q.924-.528 2.088-.529 1.155 0 2.079.529.93.524 1.466 1.525.541 1.002.541 2.429m-1.87 0q0-.924-.277-1.559-.273-.636-.772-.963-.498-.328-1.167-.328-.67 0-1.168.328-.499.327-.775.963-.273.635-.273 1.559 0 .925.273 1.56.276.635.775.963.498.328 1.168.328t1.167-.328q.5-.329.772-.963.277-.635.277-1.56m3.237 4.364v-8.727h5.779v1.521h-3.934v2.08h3.55v1.521h-3.55V656zm7.02 0v-8.727h5.778v1.521h-3.933v2.08h3.55v1.521h-3.55V656zm8.864-8.727V656h-1.845v-8.727zm9.219 3.055h-1.867a1.8 1.8 0 0 0-.208-.643 1.7 1.7 0 0 0-.405-.486 1.8 1.8 0 0 0-.571-.307 2.2 2.2 0 0 0-.695-.106q-.678 0-1.18.336-.504.333-.78.972-.277.635-.277 1.542 0 .934.277 1.569.281.634.784.958a2.1 2.1 0 0 0 1.163.324q.37 0 .686-.098a1.8 1.8 0 0 0 .567-.285q.247-.192.409-.465.167-.273.23-.622l1.867.009q-.073.6-.362 1.159-.286.553-.772.993a3.7 3.7 0 0 1-1.15.69 4.2 4.2 0 0 1-1.505.251q-1.167 0-2.088-.528-.915-.528-1.448-1.53-.53-1.002-.529-2.425 0-1.427.537-2.429t1.457-1.525q.92-.528 2.071-.529.759 0 1.407.213.651.214 1.155.623.502.404.818.993.32.588.409 1.346m1.323 5.672v-8.727h5.881v1.521h-4.036v2.08h3.733v1.521h-3.733v2.084h4.053V656z"/><path fill="#e2e8f0" stroke="#94a3b8" stroke-width="1.5" d="M892.471 700H749.529c-1.949 0-3.529 1.791-3.529 4v102c0 2.209 1.58 4 3.529 4h142.942c1.949 0 3.529-1.791 3.529-4V704c0-2.209-1.58-4-3.529-4Z"/><path fill="#1a202c" d="M799.164 745.848a2 2 0 0 0-.262-.573 1.777 1.777 0 0 0-.963-.697 2.3 2.3 0 0 0-.679-.093q-.697 0-1.226.346-.524.346-.816 1.008-.294.657-.293 1.607 0 .95.288 1.615.29.666.817 1.017.528.346 1.247.346.653 0 1.115-.231.465-.235.71-.661.248-.426.248-1.008l.391.058h-2.344v-1.447h3.804v1.145q0 1.199-.506 2.06a3.45 3.45 0 0 1-1.394 1.323q-.887.46-2.033.461-1.278 0-2.246-.563a3.9 3.9 0 0 1-1.509-1.612q-.537-1.047-.537-2.486 0-1.104.32-1.97.324-.87.905-1.474a3.9 3.9 0 0 1 1.354-.919 4.4 4.4 0 0 1 1.674-.315q.772 0 1.438.226a3.8 3.8 0 0 1 1.18.631q.52.408.848.972a3.3 3.3 0 0 1 .422 1.234zm9.096-2.939h1.922v5.904q0 .995-.475 1.74a3.17 3.17 0 0 1-1.318 1.163q-.848.413-1.975.413-1.132 0-1.98-.413a3.17 3.17 0 0 1-1.318-1.163q-.471-.745-.471-1.74v-5.904h1.922v5.74q0 .52.227.923.23.404.648.635.417.231.972.231.56 0 .972-.231.417-.231.644-.635.23-.404.23-.923zm5.426 0V752h-1.922v-9.091zM818.49 752h-3.223v-9.091h3.249q1.372 0 2.362.546.99.541 1.523 1.558.537 1.017.537 2.433 0 1.42-.537 2.441a3.7 3.7 0 0 1-1.532 1.567q-.995.546-2.379.546m-1.301-1.647h1.221q.852 0 1.434-.302.585-.306.879-.945.297-.644.297-1.66 0-1.008-.297-1.647a1.93 1.93 0 0 0-.875-.941q-.581-.302-1.434-.302h-1.225zm8.227 1.647h-2.06l3.138-9.091h2.477l3.134 9.091h-2.06l-2.277-7.013h-.071zm-.129-3.573h4.865v1.5h-4.865zm15.516-5.518V752h-1.66l-3.955-5.722h-.067V752h-1.922v-9.091h1.687l3.924 5.717h.08v-5.717zm9.609 3.183h-1.944a1.9 1.9 0 0 0-.217-.67 1.7 1.7 0 0 0-.422-.507 1.9 1.9 0 0 0-.595-.319 2.3 2.3 0 0 0-.723-.111q-.707 0-1.23.351-.524.346-.812 1.012-.29.661-.289 1.607 0 .972.289 1.633.293.661.816.999.525.337 1.212.337a2.4 2.4 0 0 0 .715-.102q.333-.102.59-.297.258-.2.426-.484.174-.285.24-.648l1.944.009q-.075.625-.377 1.207a3.6 3.6 0 0 1-.803 1.034 3.8 3.8 0 0 1-1.199.719 4.4 4.4 0 0 1-1.567.262q-1.216 0-2.175-.55-.954-.55-1.509-1.594-.55-1.043-.551-2.525 0-1.487.56-2.531.56-1.043 1.518-1.589.958-.55 2.157-.55.79 0 1.465.222.68.222 1.203.648.524.422.852 1.034.333.612.426 1.403m1.379 5.908v-9.091h6.125v1.585h-4.203v2.166h3.888v1.585h-3.888v2.17h4.221V752zM812.165 765.455q0 1.486-.564 2.53-.56 1.042-1.527 1.593-.963.546-2.166.546-1.212 0-2.175-.55t-1.523-1.594q-.558-1.043-.559-2.525 0-1.487.559-2.531.56-1.043 1.523-1.589.963-.55 2.175-.55 1.203 0 2.166.55.967.546 1.527 1.589.564 1.044.564 2.531m-1.949 0q0-.964-.288-1.625-.284-.661-.804-1.003-.519-.342-1.216-.342t-1.216.342-.808 1.003q-.284.661-.284 1.625 0 .963.284 1.624.288.662.808 1.003.519.342 1.216.342t1.216-.342.804-1.003q.288-.661.288-1.624m3.373 4.545v-9.091h6.019v1.585h-4.097v2.166h3.697v1.585h-3.697V770zm7.312 0v-9.091h6.019v1.585h-4.097v2.166h3.697v1.585h-3.697V770zm9.234-9.091V770h-1.922v-9.091zm9.602 3.183h-1.944a1.9 1.9 0 0 0-.217-.67 1.73 1.73 0 0 0-1.017-.826 2.3 2.3 0 0 0-.724-.111q-.705 0-1.229.351-.524.346-.812 1.012-.29.661-.289 1.607 0 .972.289 1.633.293.661.816.999.524.337 1.212.337a2.4 2.4 0 0 0 .715-.102q.333-.102.59-.297.258-.2.426-.484.174-.285.24-.648l1.944.009q-.075.625-.377 1.207a3.6 3.6 0 0 1-.803 1.034 3.8 3.8 0 0 1-1.199.719 4.4 4.4 0 0 1-1.567.262q-1.216 0-2.175-.55-.954-.55-1.509-1.594-.55-1.043-.551-2.525 0-1.487.56-2.531.56-1.043 1.518-1.589.958-.55 2.157-.55.79 0 1.465.222.68.222 1.203.648.524.422.852 1.034.333.612.426 1.403m1.379 5.908v-9.091h6.125v1.585h-4.203v2.166h3.888v1.585h-3.888v2.17h4.221V770z"/><path fill="#fef3c7" stroke="#d6a93b" stroke-width="1.5" d="M271.764 400h-82.528c-1.787 0-3.236.912-3.236 2.036v23.928c0 1.124 1.449 2.036 3.236 2.036h82.528c1.787 0 3.236-.912 3.236-2.036v-23.928c0-1.124-1.449-2.036-3.236-2.036Z"/><path fill="#fff" stroke="#cbd5e1" stroke-dasharray="2 4" d="M253 525h-50v270h50zM969 60h-50v270h50zM969 523h-50v270h50zM471 58h-50v270h50zM721 523h-50v270h50zM472 526h-50v270h50z"/><path fill="#1a202c" d="M181.855 79v-1.551l3.624-3.356q.462-.448.775-.805.319-.359.483-.701.164-.349.164-.751 0-.447-.204-.77a1.34 1.34 0 0 0-.557-.503 1.74 1.74 0 0 0-.8-.179q-.468 0-.816.19a1.3 1.3 0 0 0-.537.541 1.76 1.76 0 0 0-.189.84h-2.043q0-.999.453-1.735.452-.736 1.267-1.138.815-.403 1.88-.403 1.093 0 1.904.388.815.383 1.267 1.064.453.681.453 1.56 0 .578-.229 1.14-.224.561-.8 1.247-.577.681-1.626 1.636l-1.486 1.457v.07h4.275V79zm13.957-10.182 2.461 7.736h.095l2.466-7.736h2.386L199.71 79h-2.774l-3.515-10.182zM204.847 79h-2.307l3.515-10.182h2.774L212.339 79h-2.307l-2.55-7.855h-.08zm-.144-4.002h5.449v1.68h-5.449zm17.367-2.615h-2.178a2.2 2.2 0 0 0-.243-.75 1.9 1.9 0 0 0-.473-.568 2.1 2.1 0 0 0-.666-.358 2.6 2.6 0 0 0-.81-.124q-.79 0-1.377.393-.587.387-.91 1.133-.324.741-.323 1.8 0 1.089.323 1.83.328.74.915 1.118a2.45 2.45 0 0 0 1.357.378q.432 0 .8-.114.373-.114.661-.333.29-.225.478-.542a2.1 2.1 0 0 0 .268-.726l2.178.01a4.06 4.06 0 0 1-1.323 2.51 4.2 4.2 0 0 1-1.342.806q-.775.293-1.755.293-1.362 0-2.436-.616-1.07-.617-1.69-1.785-.617-1.168-.617-2.829 0-1.665.627-2.834.626-1.168 1.7-1.78 1.074-.615 2.416-.616.885 0 1.641.249.76.248 1.347.725.586.472.955 1.159.372.685.477 1.57M225.177 79h-2.307l3.515-10.182h2.774L232.669 79h-2.307l-2.55-7.855h-.08zm-.144-4.002h5.449v1.68h-5.449zm17.378-6.18V79h-1.859l-4.43-6.408h-.075V79h-2.152V68.818h1.889l4.395 6.404h.089v-6.404zm1.391 1.775v-1.775h8.362v1.775h-3.117V79h-2.128v-8.407zM256.781 79V68.818h4.017q1.154 0 1.969.413.82.408 1.248 1.158.433.745.433 1.755 0 1.014-.438 1.745-.437.726-1.268 1.114-.825.387-1.998.388h-2.69v-1.73h2.342q.616 0 1.024-.17.408-.168.606-.507.204-.337.204-.84 0-.507-.204-.855a1.25 1.25 0 0 0-.611-.527q-.408-.184-1.029-.184h-1.452V79zm5.499-4.633L264.811 79h-2.377l-2.476-4.633zm13.045-.458q0 1.665-.631 2.834-.627 1.168-1.71 1.785-1.079.61-2.426.611-1.357 0-2.436-.616-1.08-.617-1.706-1.785t-.626-2.829q0-1.665.626-2.834.626-1.168 1.706-1.78 1.079-.615 2.436-.616 1.347 0 2.426.617 1.083.61 1.71 1.78.631 1.168.631 2.833m-2.182 0q0-1.08-.323-1.82-.318-.74-.9-1.123t-1.362-.383-1.363.383q-.581.383-.904 1.124-.318.74-.319 1.82 0 1.078.319 1.819.323.74.904 1.123.582.383 1.363.383.78 0 1.362-.383t.9-1.123q.323-.74.323-1.82m13.134 0q0 1.665-.632 2.834-.625 1.168-1.71 1.785-1.079.61-2.426.611-1.357 0-2.436-.616-1.079-.617-1.705-1.785t-.627-2.829q0-1.665.627-2.834.626-1.168 1.705-1.78 1.078-.615 2.436-.616 1.347 0 2.426.617 1.084.61 1.71 1.78.632 1.168.632 2.833m-2.183 0q0-1.08-.323-1.82-.318-.74-.9-1.123t-1.362-.383-1.362.383-.905 1.124q-.318.74-.318 1.82 0 1.078.318 1.819.323.74.905 1.123.581.383 1.362.383.78 0 1.362-.383t.9-1.123q.323-.74.323-1.82m3.777-5.09h2.655l2.804 6.84h.119l2.804-6.84h2.655V79h-2.088v-6.627h-.084l-2.635 6.577h-1.422l-2.635-6.602h-.085V79h-2.088zm18.334 2.927q-.06-.6-.512-.934-.452-.333-1.228-.333-.527 0-.89.149-.363.144-.557.403a.98.98 0 0 0-.188.586.83.83 0 0 0 .114.477q.13.204.353.353.223.145.517.254.293.105.626.179l.915.219q.666.15 1.223.397.557.249.965.612t.631.855q.228.492.234 1.129-.006.934-.478 1.62-.467.68-1.352 1.06-.88.372-2.123.372-1.233 0-2.147-.378-.91-.377-1.422-1.118-.507-.746-.532-1.845h2.083q.035.513.293.855.264.339.701.513.442.168.999.168.548 0 .95-.159.408-.159.631-.442t.224-.651a.85.85 0 0 0-.204-.577q-.198-.234-.586-.398a6 6 0 0 0-.94-.298l-1.109-.278q-1.287-.314-2.033-.98t-.741-1.795q-.004-.925.492-1.615.502-.69 1.377-1.08.876-.387 1.989-.387 1.134 0 1.979.388.85.387 1.322 1.079.473.69.487 1.6z"/><path fill="#7faeb3" stroke="#94a3b8" stroke-width=".5" d="M100 367H56v22h44z"/><path stroke="#000" stroke-width=".2" d="M74 367v22m-9-22v22m18-22v22m9-22v22"/><path fill="#000" d="M91.177 377.823a.25.25 0 0 1 0 .354l-1.591 1.591a.25.25 0 0 1-.354-.354L90.646 378l-1.414-1.414a.25.25 0 0 1 .354-.354zM64 378v-.25h27v.5H64z"/><path fill="#7faeb3" stroke="#94a3b8" stroke-width=".5" d="M406 367h-44v22h44z"/><path stroke="#000" stroke-width=".2" d="M380 367v22m-9-22v22m18-22v22m9-22v22"/><path fill="#000" d="M397.177 377.823a.25.25 0 0 1 0 .354l-1.591 1.591a.25.25 0 0 1-.354 0 .25.25 0 0 1 0-.354l1.414-1.414-1.414-1.414a.25.25 0 0 1 0-.354.25.25 0 0 1 .354 0zM370 378v-.25h27v.5h-27z"/><path fill="#7faeb3" stroke="#94a3b8" stroke-width=".5" d="M531 367h-44v22h44z"/><path stroke="#000" stroke-width=".2" d="M505 367v22m-9-22v22m18-22v22m9-22v22"/><path fill="#000" d="M522.177 377.823a.25.25 0 0 1 0 .354l-1.591 1.591a.25.25 0 0 1-.354 0 .25.25 0 0 1 0-.354l1.414-1.414-1.414-1.414a.25.25 0 0 1 0-.354.25.25 0 0 1 .354 0zM495 378v-.25h27v.5h-27z"/><path fill="#7faeb3" stroke="#94a3b8" stroke-width=".5" d="M896 367h-44v22h44z"/><path stroke="#000" stroke-width=".2" d="M870 367v22m-9-22v22m18-22v22m9-22v22"/><path fill="#000" d="M887.177 377.823a.25.25 0 0 1 0 .354l-1.591 1.591a.25.25 0 0 1-.354 0 .25.25 0 0 1 0-.354l1.414-1.414-1.414-1.414a.25.25 0 0 1 0-.354.25.25 0 0 1 .354 0zM860 378v-.25h27v.5h-27z"/><path fill="#7faeb3" stroke="#94a3b8" stroke-width=".5" d="M563 651h71v-35h-71z"/><path stroke="#000" stroke-width=".2" d="M611.667 650v-35M628 650v-35m-32.667 35v-35M579 650v-35"/><path fill="#000" d="M578.823 633.177a.25.25 0 0 1 0-.354l1.591-1.591a.25.25 0 0 1 .354 0 .25.25 0 0 1 0 .354L579.354 633l1.414 1.414a.25.25 0 0 1 0 .354.25.25 0 0 1-.354 0zM628 633v.25h-49v-.5h49z"/><path fill="#7faeb3" stroke="#94a3b8" stroke-width=".5" d="M344 622h-58v25h58z"/><path fill="#e2e8f0" stroke="#94a3b8" stroke-width=".5" d="M406 594h-60v62h60z"/><path stroke="#000" stroke-width=".2" d="M307.667 622v25M296 622v25m23.333-25v25M331 622v25"/><path fill="#000" d="M330.177 634.823a.25.25 0 0 1 0 .354l-1.591 1.591a.25.25 0 0 1-.354 0 .25.25 0 0 1 0-.354l1.414-1.414-1.414-1.414a.25.25 0 0 1 0-.354.25.25 0 0 1 .354 0zM296 635v-.25h17v.5h-17zm17 0v-.25h17v.5h-17z"/><path fill="#fee2e2" stroke="#dc6b6b" stroke-width="1.5" d="M463 10h-32a4 4 0 0 0-4 4v47a4 4 0 0 0 4 4h32a4 4 0 0 0 4-4V14a4 4 0 0 0-4-4Z"/><path fill="#9b2c2c" d="M437.967 31v-6.546h4.334v1.142h-2.95v1.56h2.662v1.14h-2.662V31zm6.648-6.546V31h-1.384v-6.546zM445.754 31v-6.546h2.582q.742 0 1.266.266.528.262.802.745.279.48.278 1.128 0 .651-.281 1.122-.281.466-.815.715-.53.25-1.285.25h-1.729v-1.113h1.505q.397 0 .659-.108a.78.78 0 0 0 .39-.326q.13-.217.131-.54 0-.326-.131-.55a.8.8 0 0 0-.393-.339 1.6 1.6 0 0 0-.662-.118h-.933V31zm3.535-2.979L450.916 31h-1.528l-1.592-2.979zM451.66 31v-6.546h4.411v1.142h-3.027v1.56h2.8v1.14h-2.8v1.563h3.039V31z"/><path fill="#fee2e2" stroke="#dc6b6b" stroke-width="1.5" d="M39 10H7a4 4 0 0 0-4 4v47a4 4 0 0 0 4 4h32a4 4 0 0 0 4-4V14a4 4 0 0 0-4-4Z"/><path fill="#9b2c2c" d="M13.467 32v-6.546H17.8v1.142h-2.95v1.56h2.662v1.14h-2.662V32zm6.648-6.546V32h-1.383v-6.546zM21.254 32v-6.546h2.582q.743 0 1.266.266.527.262.802.745.279.48.278 1.128 0 .651-.281 1.122-.282.466-.815.715-.53.25-1.285.25h-1.729v-1.113h1.506q.396 0 .658-.108a.78.78 0 0 0 .39-.326 1.03 1.03 0 0 0 .13-.54q0-.326-.13-.55a.8.8 0 0 0-.393-.339 1.6 1.6 0 0 0-.662-.118h-.933V32zm3.535-2.979L26.416 32h-1.528l-1.592-2.979zM27.16 32v-6.546h4.41v1.142h-3.026v1.56h2.8v1.14h-2.8v1.563h3.04V32zM12.83 43v-6.545h4.41v1.14h-3.026v1.56h2.8v1.141h-2.8v1.563h3.039V43zm6.808-6.545 1.32 2.23h.051l1.326-2.23h1.563l-1.997 3.272L23.943 43h-1.592l-1.342-2.234h-.051L19.616 43H18.03l2.049-3.273-2.01-3.272zm6.52 0V43h-1.384v-6.545zm.89 1.14v-1.14h5.375v1.14h-2.004V43H29.05v-5.404zM437.83 43v-6.545h4.41v1.14h-3.026v1.56h2.799v1.141h-2.799v1.563h3.039V43zm6.808-6.545 1.32 2.23h.051l1.326-2.23h1.563l-1.997 3.272L448.943 43h-1.592l-1.342-2.234h-.051L444.616 43h-1.586l2.049-3.273-2.01-3.272zm6.52 0V43h-1.384v-6.545zm.889 1.14v-1.14h5.376v1.14h-2.004V43h-1.368v-5.404z"/><path fill="#64748b" d="M234 785.314h-7.636v-5.146h1.331v3.531h1.819v-3.266h1.332v3.266h1.823v-3.546H234zm-7.636-12.817H234v1.395l-4.806 3.322v.056H234v1.615h-7.636v-1.417l4.802-3.296v-.068h-4.802zm1.331-1.043h-1.331v-6.271h1.331v2.338H234v1.595h-6.305zM234 764.15h-7.636v-3.013q0-.865.309-1.477.306-.615.869-.935.56-.325 1.316-.325.76 0 1.309.328.544.328.835.951.291.619.291 1.499v2.017h-1.298v-1.756q0-.462-.126-.768a.9.9 0 0 0-.381-.455 1.2 1.2 0 0 0-.63-.153 1.25 1.25 0 0 0-.641.153.93.93 0 0 0-.395.459q-.138.305-.138.771v1.089H234zm-3.475-4.124 3.475-1.898v1.782l-3.475 1.857zm3.475-4.083v1.73l-7.636-2.636v-2.081l7.636-2.632v1.73l-5.891 1.913v.059zm-3.002.108v-4.087h1.261v4.087zm-4.634-13.034H234v1.395l-4.806 3.322v.056H234v1.615h-7.636v-1.417l4.802-3.296v-.068h-4.802zm2.673-8.071v1.633q-.317.045-.563.183-.25.138-.425.354a1.6 1.6 0 0 0-.268.499 1.9 1.9 0 0 0-.094.608q0 .593.295 1.033.29.44.85.682.555.243 1.35.243.817 0 1.372-.243.555-.245.839-.686.283-.44.283-1.018 0-.324-.085-.6a1.6 1.6 0 0 0-.25-.496 1.5 1.5 0 0 0-.407-.358 1.6 1.6 0 0 0-.544-.201l.007-1.633q.526.063 1.015.317.484.249.868.675.38.42.604 1.006.22.582.22 1.317 0 1.022-.462 1.827a3.27 3.27 0 0 1-1.339 1.267q-.876.463-2.121.463-1.249 0-2.126-.47a3.27 3.27 0 0 1-1.334-1.275 3.57 3.57 0 0 1-.463-1.812q0-.664.187-1.231.186-.57.544-1.01.354-.44.869-.716a3.2 3.2 0 0 1 1.178-.358m4.963-1.158h-7.636v-5.146h1.331v3.531h1.819v-3.266h1.332v3.266h1.823v-3.546H234zM444.832 776.007a1.7 1.7 0 0 0-.481.22q-.213.142-.358.346a1.5 1.5 0 0 0-.227.463 2 2 0 0 0-.079.57q0 .586.291 1.029.29.44.847.686.55.246 1.349.247.798 0 1.358-.243.559-.242.853-.686.291-.444.291-1.048 0-.548-.194-.936a1.4 1.4 0 0 0-.555-.596 1.66 1.66 0 0 0-.847-.209l.049-.328v1.969h-1.216v-3.196h.962q1.007 0 1.73.425.72.426 1.112 1.171.387.745.387 1.708 0 1.074-.473 1.886a3.3 3.3 0 0 1-1.354 1.268q-.879.451-2.088.451-.929 0-1.655-.268a3.5 3.5 0 0 1-1.238-.761 3.3 3.3 0 0 1-.772-1.137 3.7 3.7 0 0 1-.265-1.406q0-.648.19-1.208.187-.559.53-.992.343-.435.816-.712a2.8 2.8 0 0 1 1.037-.354zm5.168-4.005v1.73l-7.636-2.636v-2.081l7.636-2.632v1.73l-5.891 1.913v.059zm-3.002.108v-4.087h1.261v4.087zm-3.303-5.422h-1.331v-6.272h1.331v2.338H450v1.596h-6.305zm6.305-7.305h-7.636v-5.145h1.331v3.531h1.819v-3.267h1.332v3.267h1.823v-3.546H450zm.104-11.637q0 .836-.287 1.488-.291.648-.798 1.025-.51.374-1.178.384v-1.626a.84.84 0 0 0 .492-.182q.209-.172.325-.455.115-.284.115-.638 0-.369-.13-.652a1.1 1.1 0 0 0-.362-.444.9.9 0 0 0-.533-.16.9.9 0 0 0-.541.171 1.1 1.1 0 0 0-.373.485 1.9 1.9 0 0 0-.134.746v.712h-1.186v-.712q0-.366-.126-.645a1.04 1.04 0 0 0-.351-.44.9.9 0 0 0-.529-.157.92.92 0 0 0-.847.518 1.24 1.24 0 0 0-.123.567q0 .329.119.6.116.273.332.437a.9.9 0 0 0 .507.175v1.547a2 2 0 0 1-1.163-.376 2.45 2.45 0 0 1-.787-.985 3.3 3.3 0 0 1-.287-1.405q0-.791.287-1.384t.776-.921q.484-.331 1.089-.328.64-.003 1.07.399.429.4.544 1.04h.06q.108-.842.585-1.282.474-.444 1.186-.44.653-.004 1.16.376.507.376.798 1.041.29.663.29 1.521M699 774.282h-7.636v-5.146h1.331v3.532h1.819v-3.267h1.332v3.267h1.823v-3.546H699zm-7.636-7.943 2.602-1.54v-.06l-2.602-1.547v-1.823l3.818 2.33 3.818-2.383v1.857l-2.606 1.566v.06l2.606 1.566v1.85l-3.818-2.391-3.818 2.346zm0-7.606H699v1.614h-7.636zm1.331-1.038h-1.331v-6.272h1.331v2.338H699v1.596h-6.305z"/><path fill="#8a6512" d="M207.966 418v-8.364h5.636v1.458h-3.868v1.993h3.578v1.458h-3.578v1.997h3.884V418zm7.042 0v-8.364h1.768v6.906h3.586V418zm6.525 0v-8.364h5.635v1.458h-3.867v1.993h3.577v1.458h-3.577v1.997h3.884V418zm8.552-8.364 2.022 6.355h.077l2.026-6.355h1.96L233.287 418h-2.279l-2.887-8.364zm7.421 8.364h-1.894l2.887-8.364h2.279l2.883 8.364h-1.895l-2.095-6.452h-.066zm-.118-3.287h4.476v1.38h-4.476zm5.939-3.619v-1.458h6.869v1.458h-2.561V418h-1.748v-6.906zm15.304 2.724q0 1.368-.519 2.328a3.6 3.6 0 0 1-1.405 1.466q-.886.502-1.992.502-1.116 0-2.002-.506a3.6 3.6 0 0 1-1.4-1.466q-.515-.96-.515-2.324 0-1.368.515-2.328t1.4-1.462q.886-.506 2.002-.506 1.106 0 1.992.506a3.57 3.57 0 0 1 1.405 1.462q.519.96.519 2.328m-1.793 0q0-.886-.265-1.494-.262-.61-.74-.923a2 2 0 0 0-1.118-.315q-.642 0-1.119.315-.478.314-.744.923-.261.607-.261 1.494 0 .886.261 1.495.266.608.744.923.477.314 1.119.314.64 0 1.118-.314.478-.315.74-.923.265-.609.265-1.495m3.103 4.182v-8.364h3.3q.947 0 1.617.339.674.336 1.025.952.355.613.355 1.441 0 .834-.359 1.434a2.34 2.34 0 0 1-1.042.915q-.678.318-1.641.318h-2.21v-1.421h1.924q.506 0 .841-.139a1 1 0 0 0 .498-.416q.168-.279.168-.691 0-.415-.168-.702a1.02 1.02 0 0 0-.502-.433q-.335-.151-.845-.151h-1.193V418zm4.516-3.806 2.079 3.806h-1.952l-2.034-3.806z"/><g opacity=".66"><path stroke="#8a6512" stroke-width="1.5" d="M201.8 407h-9.6c-.663 0-1.2.482-1.2 1.077v11.846c0 .595.537 1.077 1.2 1.077h9.6c.663 0 1.2-.482 1.2-1.077v-11.846c0-.595-.537-1.077-1.2-1.077Z"/><path fill="#8a6512" d="m197 409.154-2.4 3.231h4.8zM197 418.846l-2.4-3.231h4.8z"/></g><path fill="#fee2e2" stroke="#dc6b6b" stroke-width="1.5" d="M958 10h-32a4 4 0 0 0-4 4v47a4 4 0 0 0 4 4h32a4 4 0 0 0 4-4V14a4 4 0 0 0-4-4Z"/><path fill="#9b2c2c" d="M934.467 31v-6.546h4.334v1.142h-2.95v1.56h2.662v1.14h-2.662V31zm6.648-6.546V31h-1.384v-6.546zM942.254 31v-6.546h2.582q.743 0 1.266.266.528.262.802.745.279.48.278 1.128 0 .651-.281 1.122-.281.466-.815.715-.53.25-1.285.25h-1.729v-1.113h1.505q.397 0 .659-.108a.78.78 0 0 0 .39-.326q.13-.217.131-.54 0-.326-.131-.55a.8.8 0 0 0-.393-.339 1.6 1.6 0 0 0-.662-.118h-.933V31zm3.535-2.979L947.416 31h-1.528l-1.592-2.979zM948.16 31v-6.546h4.411v1.142h-3.027v1.56h2.8v1.14h-2.8v1.563h3.039V31zM933.83 43v-6.545h4.41v1.14h-3.026v1.56h2.799v1.141h-2.799v1.563h3.039V43zm6.808-6.545 1.32 2.23h.051l1.326-2.23h1.563l-1.997 3.272L944.943 43h-1.592l-1.342-2.234h-.051L940.616 43h-1.586l2.049-3.273-2.01-3.272zm6.52 0V43h-1.384v-6.545zm.889 1.14v-1.14h5.376v1.14h-2.004V43h-1.368v-5.404z"/><path stroke="#000" d="M286 621.5h45"/></svg>