<svg width="894" height="560" viewBox="0 0 894 560" fill="none" xmlns="http://www.w3.org/2000/svg">
<path d="M894 0H0V560H894V0Z" fill="#E9F1FB"/>
<path d="M873 14H13V534H873V14Z" stroke="black"/>
<path d="M873 14H13V534H873V14Z" stroke="black" stroke-opacity="0.2"/>
<path d="M413 14V467.5" stroke="black" stroke-width="1.5"/>
<path d="M369 24H27C24.7909 24 23 25.7909 23 28V400C23 402.209 24.7909 404 27 404H369C371.209 404 373 402.209 373 400V28C373 25.7909 371.209 24 369 24Z" fill="#E2E8F0" stroke="#94A3B8" stroke-width="1.5"/>
<path d="M159.316 208.792V206.636H169.47V208.792H165.685V219H163.101V208.792H159.316ZM171.142 219V206.636H173.756V211.738H179.063V206.636H181.671V219H179.063V213.893H173.756V219H171.142ZM183.826 219V206.636H192.157V208.792H186.44V211.738H191.728V213.893H186.44V216.845H192.181V219H183.826ZM196.366 219H193.565L197.833 206.636H201.202L205.464 219H202.663L199.566 209.462H199.469L196.366 219ZM196.191 214.14H202.808V216.181H196.191V214.14ZM204.97 208.792V206.636H215.125V208.792H211.339V219H208.756V208.792H204.97ZM216.797 219V206.636H225.128V208.792H219.411V211.738H224.699V213.893H219.411V216.845H225.152V219H216.797ZM227.206 219V206.636H232.084C233.017 206.636 233.814 206.803 234.474 207.137C235.138 207.467 235.644 207.936 235.99 208.544C236.34 209.148 236.515 209.858 236.515 210.675C236.515 211.496 236.338 212.202 235.984 212.794C235.629 213.382 235.116 213.832 234.444 214.146C233.776 214.46 232.967 214.617 232.017 214.617H228.751V212.516H231.595C232.094 212.516 232.508 212.448 232.838 212.311C233.168 212.174 233.414 211.969 233.575 211.695C233.74 211.422 233.822 211.082 233.822 210.675C233.822 210.265 233.74 209.918 233.575 209.637C233.414 209.355 233.166 209.142 232.832 208.997C232.502 208.848 232.086 208.773 231.583 208.773H229.82V219H227.206ZM233.883 213.374L236.956 219H234.07L231.064 213.374H233.883Z" fill="#1A202C"/>
<path d="M597.72 210.633C597.635 210.339 597.517 210.079 597.364 209.854C597.211 209.625 597.024 209.431 596.802 209.275C596.585 209.114 596.336 208.991 596.054 208.906C595.776 208.822 595.468 208.779 595.13 208.779C594.498 208.779 593.943 208.936 593.464 209.25C592.989 209.564 592.619 210.021 592.353 210.621C592.088 211.216 591.955 211.945 591.955 212.806C591.955 213.667 592.086 214.4 592.347 215.004C592.609 215.607 592.979 216.068 593.458 216.386C593.937 216.7 594.502 216.857 595.154 216.857C595.746 216.857 596.251 216.752 596.67 216.543C597.092 216.33 597.414 216.03 597.635 215.643C597.861 215.257 597.974 214.8 597.974 214.273L598.505 214.352H595.317V212.384H600.491V213.941C600.491 215.028 600.262 215.961 599.803 216.742C599.344 217.519 598.712 218.119 597.907 218.541C597.102 218.96 596.181 219.169 595.142 219.169C593.983 219.169 592.965 218.913 592.088 218.402C591.21 217.887 590.526 217.157 590.035 216.211C589.548 215.261 589.305 214.134 589.305 212.83C589.305 211.828 589.449 210.935 589.739 210.15C590.033 209.361 590.443 208.693 590.971 208.146C591.498 207.598 592.112 207.182 592.812 206.896C593.512 206.61 594.271 206.467 595.088 206.467C595.788 206.467 596.44 206.57 597.044 206.775C597.648 206.976 598.183 207.262 598.65 207.632C599.121 208.003 599.505 208.443 599.803 208.955C600.101 209.462 600.292 210.021 600.376 210.633H597.72ZM601.232 206.636H604.16L606.979 211.961H607.1L609.919 206.636H612.847L608.337 214.629V219H605.742V214.629L601.232 206.636ZM614.275 206.636H617.498L620.903 214.943H621.048L624.453 206.636H627.677V219H625.141V210.953H625.039L621.839 218.94H620.112L616.913 210.923H616.81V219H614.275V206.636ZM640.172 206.636V219H637.914L632.535 211.218H632.444V219H629.83V206.636H632.124L637.461 214.412H637.57V206.636H640.172ZM644.462 219H641.661L645.929 206.636H649.298L653.56 219H650.759L647.662 209.462H647.565L644.462 219ZM644.287 214.14H650.904V216.181H644.287V214.14ZM661.473 210.192C661.425 209.705 661.217 209.327 660.851 209.057C660.485 208.788 659.988 208.653 659.36 208.653C658.933 208.653 658.573 208.713 658.279 208.834C657.986 208.951 657.76 209.114 657.603 209.323C657.45 209.532 657.374 209.77 657.374 210.035C657.366 210.257 657.412 210.45 657.513 210.615C657.617 210.78 657.76 210.923 657.941 211.043C658.123 211.16 658.332 211.263 658.569 211.351C658.807 211.436 659.06 211.508 659.33 211.569L660.441 211.834C660.98 211.955 661.475 212.116 661.926 212.317C662.377 212.518 662.767 212.766 663.097 213.06C663.427 213.353 663.683 213.7 663.864 214.098C664.049 214.496 664.143 214.953 664.147 215.468C664.143 216.225 663.95 216.881 663.568 217.436C663.19 217.988 662.642 218.416 661.926 218.722C661.213 219.024 660.354 219.175 659.348 219.175C658.35 219.175 657.481 219.022 656.74 218.716C656.004 218.41 655.428 217.958 655.013 217.358C654.603 216.754 654.388 216.008 654.368 215.118H656.897C656.925 215.533 657.044 215.879 657.253 216.157C657.467 216.43 657.75 216.638 658.104 216.778C658.463 216.915 658.867 216.984 659.318 216.984C659.761 216.984 660.145 216.919 660.471 216.79C660.801 216.662 661.056 216.483 661.238 216.253C661.419 216.024 661.509 215.76 661.509 215.462C661.509 215.185 661.427 214.951 661.262 214.762C661.101 214.573 660.863 214.412 660.549 214.279C660.239 214.146 659.859 214.026 659.408 213.917L658.062 213.579C657.02 213.325 656.197 212.929 655.593 212.39C654.989 211.85 654.69 211.124 654.694 210.21C654.69 209.462 654.889 208.808 655.291 208.248C655.698 207.689 656.255 207.252 656.963 206.938C657.672 206.624 658.477 206.467 659.378 206.467C660.296 206.467 661.097 206.624 661.781 206.938C662.469 207.252 663.004 207.689 663.387 208.248C663.769 208.808 663.966 209.456 663.978 210.192H661.473ZM668.52 206.636V219H665.906V206.636H668.52ZM678.307 206.636H680.921V214.665C680.921 215.567 680.706 216.356 680.275 217.032C679.848 217.708 679.251 218.235 678.482 218.614C677.713 218.988 676.818 219.175 675.796 219.175C674.769 219.175 673.872 218.988 673.103 218.614C672.334 218.235 671.737 217.708 671.31 217.032C670.884 216.356 670.67 215.567 670.67 214.665V206.636H673.284V214.442C673.284 214.913 673.387 215.332 673.592 215.698C673.801 216.064 674.095 216.352 674.474 216.561C674.852 216.77 675.293 216.875 675.796 216.875C676.303 216.875 676.743 216.77 677.118 216.561C677.496 216.352 677.788 216.064 677.993 215.698C678.202 215.332 678.307 214.913 678.307 214.442V206.636ZM683.072 206.636H686.295L689.7 214.943H689.845L693.25 206.636H696.474V219H693.938V210.953H693.835L690.636 218.94H688.909L685.71 210.923H685.607V219H683.072V206.636Z" fill="#475569"/>
<path d="M162.088 469V459.545H165.873C166.569 459.545 167.149 459.649 167.614 459.855C168.078 460.061 168.428 460.347 168.662 460.713C168.896 461.077 169.013 461.495 169.013 461.969C169.013 462.338 168.939 462.663 168.791 462.943C168.643 463.22 168.44 463.448 168.182 463.626C167.926 463.802 167.634 463.926 167.304 464V464.093C167.665 464.108 168.002 464.21 168.315 464.397C168.632 464.585 168.889 464.848 169.086 465.187C169.283 465.522 169.382 465.922 169.382 466.387C169.382 466.889 169.257 467.337 169.008 467.73C168.762 468.121 168.397 468.431 167.914 468.658C167.431 468.886 166.835 469 166.127 469H162.088ZM164.087 467.366H165.716C166.273 467.366 166.68 467.26 166.935 467.047C167.191 466.832 167.318 466.546 167.318 466.189C167.318 465.927 167.255 465.696 167.129 465.496C167.003 465.296 166.823 465.139 166.589 465.025C166.358 464.911 166.083 464.854 165.763 464.854H164.087V467.366ZM164.087 463.502H165.569C165.843 463.502 166.086 463.454 166.298 463.359C166.514 463.26 166.683 463.122 166.806 462.943C166.932 462.765 166.995 462.551 166.995 462.301C166.995 461.96 166.874 461.684 166.63 461.475C166.39 461.266 166.049 461.161 165.606 461.161H164.087V463.502ZM176.522 459.545H178.521V465.685C178.521 466.375 178.357 466.978 178.027 467.495C177.701 468.012 177.244 468.415 176.656 468.705C176.068 468.991 175.384 469.134 174.602 469.134C173.817 469.134 173.131 468.991 172.543 468.705C171.955 468.415 171.498 468.012 171.172 467.495C170.846 466.978 170.683 466.375 170.683 465.685V459.545H172.682V465.515C172.682 465.875 172.76 466.195 172.917 466.475C173.077 466.755 173.302 466.975 173.591 467.135C173.88 467.295 174.217 467.375 174.602 467.375C174.99 467.375 175.327 467.295 175.613 467.135C175.902 466.975 176.125 466.755 176.282 466.475C176.442 466.195 176.522 465.875 176.522 465.515V459.545ZM182.165 459.545V469H180.166V459.545H182.165ZM183.81 469V459.545H185.808V467.352H189.862V469H183.81ZM194.537 469H191.186V459.545H194.565C195.516 459.545 196.334 459.735 197.021 460.113C197.707 460.489 198.235 461.029 198.604 461.734C198.977 462.438 199.163 463.282 199.163 464.263C199.163 465.248 198.977 466.095 198.604 466.803C198.235 467.51 197.704 468.054 197.011 468.432C196.322 468.811 195.497 469 194.537 469ZM193.184 467.287H194.454C195.045 467.287 195.542 467.183 195.945 466.973C196.351 466.761 196.656 466.433 196.859 465.99C197.065 465.544 197.168 464.968 197.168 464.263C197.168 463.565 197.065 462.994 196.859 462.551C196.656 462.108 196.353 461.781 195.95 461.572C195.547 461.363 195.049 461.258 194.459 461.258H193.184V467.287ZM202.642 459.545V469H200.644V459.545H202.642ZM212.195 459.545V469H210.469L206.355 463.049H206.286V469H204.287V459.545H206.041L210.122 465.491H210.205V459.545H212.195ZM220.116 462.602C220.051 462.377 219.96 462.178 219.843 462.006C219.726 461.831 219.583 461.683 219.414 461.563C219.248 461.44 219.057 461.346 218.842 461.281C218.629 461.217 218.394 461.184 218.135 461.184C217.652 461.184 217.227 461.304 216.861 461.544C216.498 461.784 216.215 462.134 216.012 462.592C215.809 463.048 215.707 463.605 215.707 464.263C215.707 464.922 215.807 465.482 216.007 465.944C216.207 466.406 216.49 466.758 216.857 467.001C217.223 467.241 217.655 467.361 218.154 467.361C218.606 467.361 218.992 467.281 219.313 467.121C219.636 466.958 219.882 466.729 220.051 466.433C220.224 466.138 220.31 465.788 220.31 465.385L220.716 465.445H218.278V463.94H222.235V465.131C222.235 465.962 222.059 466.676 221.708 467.273C221.358 467.867 220.874 468.326 220.259 468.649C219.643 468.969 218.939 469.129 218.145 469.129C217.258 469.129 216.48 468.934 215.809 468.543C215.138 468.149 214.615 467.59 214.239 466.867C213.867 466.141 213.68 465.279 213.68 464.282C213.68 463.516 213.791 462.832 214.013 462.232C214.237 461.629 214.551 461.118 214.955 460.7C215.358 460.281 215.827 459.962 216.363 459.744C216.898 459.525 217.478 459.416 218.103 459.416C218.639 459.416 219.137 459.495 219.599 459.652C220.06 459.806 220.47 460.024 220.827 460.307C221.187 460.59 221.481 460.927 221.708 461.318C221.936 461.706 222.082 462.134 222.147 462.602H220.116ZM226.547 467.338V465.764L230.494 459.545H231.851V461.724H231.048L228.559 465.662V465.736H234.168V467.338H226.547ZM231.085 469V466.858L231.121 466.161V459.545H232.996V469H231.085Z" fill="#475569"/>
<path d="M557.399 469V459.545H561.184C561.88 459.545 562.46 459.649 562.925 459.855C563.39 460.061 563.739 460.347 563.973 460.713C564.207 461.077 564.324 461.495 564.324 461.969C564.324 462.338 564.25 462.663 564.102 462.943C563.954 463.22 563.751 463.448 563.493 463.626C563.237 463.802 562.945 463.926 562.616 464V464.093C562.976 464.108 563.313 464.21 563.627 464.397C563.944 464.585 564.2 464.848 564.397 465.187C564.594 465.522 564.693 465.922 564.693 466.387C564.693 466.889 564.568 467.337 564.319 467.73C564.073 468.121 563.708 468.431 563.225 468.658C562.742 468.886 562.146 469 561.438 469H557.399ZM559.398 467.366H561.027C561.584 467.366 561.991 467.26 562.246 467.047C562.502 466.832 562.629 466.546 562.629 466.189C562.629 465.927 562.566 465.696 562.44 465.496C562.314 465.296 562.134 465.139 561.9 465.025C561.669 464.911 561.394 464.854 561.074 464.854H559.398V467.366ZM559.398 463.502H560.88C561.154 463.502 561.397 463.454 561.609 463.359C561.825 463.26 561.994 463.122 562.117 462.943C562.243 462.765 562.306 462.551 562.306 462.301C562.306 461.96 562.185 461.684 561.941 461.475C561.701 461.266 561.36 461.161 560.917 461.161H559.398V463.502ZM571.833 459.545H573.832V465.685C573.832 466.375 573.668 466.978 573.338 467.495C573.012 468.012 572.555 468.415 571.967 468.705C571.379 468.991 570.695 469.134 569.913 469.134C569.128 469.134 568.442 468.991 567.854 468.705C567.266 468.415 566.809 468.012 566.483 467.495C566.157 466.978 565.994 466.375 565.994 465.685V459.545H567.993V465.515C567.993 465.875 568.071 466.195 568.228 466.475C568.388 466.755 568.613 466.975 568.902 467.135C569.191 467.295 569.528 467.375 569.913 467.375C570.301 467.375 570.638 467.295 570.924 467.135C571.213 466.975 571.436 466.755 571.593 466.475C571.753 466.195 571.833 465.875 571.833 465.515V459.545ZM577.476 459.545V469H575.477V459.545H577.476ZM579.121 469V459.545H581.119V467.352H585.173V469H579.121ZM589.848 469H586.497V459.545H589.876C590.827 459.545 591.645 459.735 592.332 460.113C593.018 460.489 593.546 461.029 593.915 461.734C594.288 462.438 594.474 463.282 594.474 464.263C594.474 465.248 594.288 466.095 593.915 466.803C593.546 467.51 593.015 468.054 592.323 468.432C591.633 468.811 590.808 469 589.848 469ZM588.495 467.287H589.765C590.356 467.287 590.853 467.183 591.256 466.973C591.662 466.761 591.967 466.433 592.17 465.99C592.376 465.544 592.479 464.968 592.479 464.263C592.479 463.565 592.376 462.994 592.17 462.551C591.967 462.108 591.664 461.781 591.261 461.572C590.858 461.363 590.361 461.258 589.77 461.258H588.495V467.287ZM597.953 459.545V469H595.955V459.545H597.953ZM607.506 459.545V469H605.78L601.666 463.049H601.597V469H599.598V459.545H601.352L605.433 465.491H605.516V459.545H607.506ZM615.427 462.602C615.362 462.377 615.271 462.178 615.154 462.006C615.038 461.831 614.894 461.683 614.725 461.563C614.559 461.44 614.368 461.346 614.153 461.281C613.94 461.217 613.705 461.184 613.446 461.184C612.963 461.184 612.538 461.304 612.172 461.544C611.809 461.784 611.526 462.134 611.323 462.592C611.12 463.048 611.018 463.605 611.018 464.263C611.018 464.922 611.118 465.482 611.318 465.944C611.518 466.406 611.801 466.758 612.168 467.001C612.534 467.241 612.966 467.361 613.465 467.361C613.917 467.361 614.304 467.281 614.624 467.121C614.947 466.958 615.193 466.729 615.362 466.433C615.535 466.138 615.621 465.788 615.621 465.385L616.027 465.445H613.589V463.94H617.546V465.131C617.546 465.962 617.37 466.676 617.02 467.273C616.669 467.867 616.185 468.326 615.57 468.649C614.954 468.969 614.25 469.129 613.456 469.129C612.569 469.129 611.791 468.934 611.12 468.543C610.449 468.149 609.926 467.59 609.55 466.867C609.178 466.141 608.991 465.279 608.991 464.282C608.991 463.516 609.102 462.832 609.324 462.232C609.549 461.629 609.862 461.118 610.266 460.7C610.669 460.281 611.138 459.962 611.674 459.744C612.209 459.525 612.789 459.416 613.414 459.416C613.95 459.416 614.448 459.495 614.91 459.652C615.371 459.806 615.781 460.024 616.138 460.307C616.498 460.59 616.792 460.927 617.02 461.318C617.247 461.706 617.393 462.134 617.458 462.602H615.427ZM622.001 469V467.56L625.366 464.444C625.652 464.167 625.892 463.917 626.086 463.696C626.283 463.474 626.433 463.257 626.534 463.045C626.636 462.829 626.686 462.597 626.686 462.348C626.686 462.071 626.623 461.832 626.497 461.632C626.371 461.429 626.199 461.274 625.98 461.166C625.762 461.055 625.514 461 625.237 461C624.948 461 624.695 461.058 624.48 461.175C624.264 461.292 624.098 461.46 623.981 461.678C623.864 461.897 623.806 462.157 623.806 462.458H621.908C621.908 461.84 622.048 461.303 622.328 460.847C622.609 460.392 623.001 460.039 623.506 459.79C624.01 459.541 624.592 459.416 625.251 459.416C625.928 459.416 626.517 459.536 627.019 459.776C627.524 460.013 627.916 460.343 628.196 460.764C628.476 461.186 628.616 461.669 628.616 462.214C628.616 462.571 628.545 462.923 628.404 463.271C628.265 463.619 628.018 464.005 627.661 464.43C627.304 464.851 626.8 465.358 626.151 465.949L624.771 467.301V467.366H628.741V469H622.001Z" fill="#475569"/>
<path d="M238.836 493H158.164C156.416 493 155 494.205 155 495.691V527.309C155 528.795 156.416 530 158.164 530H238.836C240.584 530 242 528.795 242 527.309V495.691C242 494.205 240.584 493 238.836 493Z" fill="#FEF3C7" stroke="#D6A93B" stroke-width="1.5"/>
<path d="M172.7 501H162.3C161.582 501 161 501.689 161 502.538V519.462C161 520.311 161.582 521 162.3 521H172.7C173.418 521 174 520.311 174 519.462V502.538C174 501.689 173.418 501 172.7 501Z" stroke="#8A6512" stroke-width="1.5"/>
<path d="M167.5 504.077L164.9 508.693H170.1L167.5 504.077Z" fill="#8A6512"/>
<path d="M167.5 517.923L164.9 513.308H170.1L167.5 517.923Z" fill="#8A6512"/>
<path d="M177.966 515V506.636H183.602V508.094H179.734V510.087H183.312V511.545H179.734V513.542H183.618V515H177.966ZM185.008 515V506.636H186.776V513.542H190.362V515H185.008ZM191.533 515V506.636H197.168V508.094H193.301V510.087H196.878V511.545H193.301V513.542H197.185V515H191.533ZM200.085 506.636L202.107 512.991H202.184L204.21 506.636H206.17L203.287 515H201.008L198.121 506.636H200.085ZM207.506 515H205.612L208.499 506.636H210.778L213.661 515H211.766L209.671 508.548H209.605L207.506 515ZM207.388 511.713H211.864V513.093H207.388V511.713ZM213.327 508.094V506.636H220.196V508.094H217.635V515H215.887V508.094H213.327ZM228.631 510.818C228.631 511.73 228.458 512.506 228.112 513.146C227.769 513.786 227.301 514.274 226.707 514.612C226.117 514.947 225.452 515.114 224.715 515.114C223.971 515.114 223.304 514.946 222.713 514.608C222.123 514.27 221.656 513.782 221.313 513.142C220.97 512.502 220.798 511.728 220.798 510.818C220.798 509.906 220.97 509.13 221.313 508.49C221.656 507.851 222.123 507.363 222.713 507.028C223.304 506.691 223.971 506.522 224.715 506.522C225.452 506.522 226.117 506.691 226.707 507.028C227.301 507.363 227.769 507.851 228.112 508.49C228.458 509.13 228.631 509.906 228.631 510.818ZM226.838 510.818C226.838 510.227 226.75 509.729 226.573 509.324C226.398 508.918 226.152 508.61 225.833 508.401C225.515 508.191 225.142 508.086 224.715 508.086C224.287 508.086 223.914 508.191 223.596 508.401C223.277 508.61 223.029 508.918 222.852 509.324C222.678 509.729 222.591 510.227 222.591 510.818C222.591 511.409 222.678 511.907 222.852 512.313C223.029 512.719 223.277 513.026 223.596 513.236C223.914 513.445 224.287 513.55 224.715 513.55C225.142 513.55 225.515 513.445 225.833 513.236C226.152 513.026 226.398 512.719 226.573 512.313C226.75 511.907 226.838 511.409 226.838 510.818ZM229.941 515V506.636H233.241C233.872 506.636 234.411 506.749 234.858 506.975C235.307 507.199 235.649 507.516 235.883 507.927C236.12 508.335 236.238 508.816 236.238 509.368C236.238 509.924 236.118 510.402 235.879 510.802C235.639 511.199 235.292 511.504 234.837 511.717C234.385 511.929 233.838 512.035 233.196 512.035H230.986V510.614H232.91C233.247 510.614 233.528 510.568 233.751 510.475C233.974 510.383 234.14 510.244 234.249 510.059C234.361 509.873 234.417 509.643 234.417 509.368C234.417 509.091 234.361 508.857 234.249 508.666C234.14 508.475 233.973 508.331 233.747 508.233C233.524 508.132 233.242 508.082 232.902 508.082H231.709V515H229.941ZM234.457 511.194L236.536 515H234.584L232.55 511.194H234.457Z" fill="#8A6512"/>
<path d="M451.3 404H375.7C374.209 404 373 405.254 373 406.8V464.2C373 465.746 374.209 467 375.7 467H451.3C452.791 467 454 465.746 454 464.2V406.8C454 405.254 452.791 404 451.3 404Z" fill="#DBEAFE" stroke="#5B8FCF" stroke-width="1.5"/>
<path d="M383.5 433C385.985 433 388 430.985 388 428.5C388 426.015 385.985 424 383.5 424C381.015 424 379 426.015 379 428.5C379 430.985 381.015 433 383.5 433Z" fill="#2C5282"/>
<path d="M382 433V440.5M385 433V440.5M379 451V437.5H388V451" stroke="#2C5282" stroke-width="2.2" stroke-linecap="round"/>
<path d="M411.498 426.636H412.636L413.838 429.568H413.889L415.091 426.636H416.229V431H415.334V428.16H415.297L414.168 430.979H413.559L412.43 428.149H412.393V431H411.498V426.636ZM416.989 431V426.636H419.929V427.397H417.911V428.437H419.778V429.197H417.911V430.239H419.938V431H416.989ZM424.312 426.636V431H423.515L421.617 428.254H421.585V431H420.662V426.636H421.472L423.356 429.381H423.394V426.636H424.312ZM425.641 426.636V428.294H424.994V426.636H425.641ZM428.696 427.891C428.679 427.719 428.605 427.586 428.476 427.491C428.347 427.396 428.172 427.348 427.95 427.348C427.799 427.348 427.672 427.369 427.569 427.412C427.465 427.453 427.385 427.511 427.33 427.585C427.276 427.658 427.249 427.742 427.249 427.836C427.246 427.914 427.262 427.982 427.298 428.04C427.335 428.099 427.385 428.149 427.449 428.192C427.513 428.233 427.587 428.269 427.671 428.3C427.755 428.33 427.844 428.356 427.939 428.377L428.331 428.471C428.522 428.513 428.696 428.57 428.855 428.641C429.015 428.712 429.152 428.8 429.269 428.903C429.385 429.007 429.475 429.129 429.539 429.27C429.605 429.411 429.638 429.572 429.64 429.754C429.638 430.021 429.57 430.252 429.435 430.448C429.301 430.643 429.108 430.794 428.855 430.902C428.604 431.009 428.301 431.062 427.946 431.062C427.593 431.062 427.287 431.008 427.025 430.9C426.765 430.792 426.562 430.632 426.416 430.42C426.271 430.207 426.195 429.944 426.188 429.63H427.081C427.091 429.776 427.132 429.898 427.206 429.996C427.282 430.093 427.382 430.166 427.507 430.216C427.633 430.264 427.776 430.288 427.935 430.288C428.091 430.288 428.227 430.266 428.342 430.22C428.458 430.175 428.549 430.112 428.613 430.031C428.676 429.95 428.708 429.857 428.708 429.751C428.708 429.653 428.679 429.571 428.621 429.504C428.564 429.437 428.48 429.381 428.37 429.334C428.26 429.287 428.126 429.244 427.967 429.206L427.492 429.087C427.124 428.997 426.833 428.857 426.62 428.667C426.407 428.477 426.301 428.22 426.303 427.898C426.301 427.634 426.372 427.403 426.514 427.205C426.657 427.008 426.854 426.854 427.104 426.743C427.354 426.632 427.638 426.577 427.956 426.577C428.28 426.577 428.563 426.632 428.804 426.743C429.047 426.854 429.236 427.008 429.371 427.205C429.506 427.403 429.576 427.631 429.58 427.891H428.696Z" fill="#1E3A5F"/>
<path d="M398.706 439.164H397.773C397.756 439.043 397.721 438.936 397.668 438.842C397.616 438.747 397.548 438.666 397.466 438.599C397.384 438.533 397.288 438.482 397.18 438.446C397.074 438.411 396.958 438.393 396.833 438.393C396.607 438.393 396.411 438.449 396.243 438.561C396.075 438.672 395.945 438.834 395.853 439.047C395.761 439.259 395.714 439.516 395.714 439.818C395.714 440.129 395.761 440.391 395.853 440.602C395.947 440.814 396.077 440.974 396.245 441.082C396.413 441.19 396.607 441.244 396.827 441.244C396.95 441.244 397.065 441.227 397.17 441.195C397.276 441.162 397.371 441.114 397.453 441.052C397.536 440.988 397.604 440.911 397.658 440.82C397.713 440.729 397.751 440.625 397.773 440.509L398.706 440.513C398.682 440.713 398.621 440.906 398.525 441.092C398.43 441.277 398.301 441.442 398.139 441.589C397.979 441.734 397.787 441.849 397.564 441.934C397.342 442.018 397.092 442.06 396.812 442.06C396.423 442.06 396.075 441.972 395.768 441.795C395.462 441.619 395.221 441.364 395.043 441.031C394.867 440.697 394.779 440.293 394.779 439.818C394.779 439.342 394.869 438.938 395.048 438.604C395.227 438.27 395.469 438.016 395.776 437.841C396.083 437.665 396.428 437.577 396.812 437.577C397.065 437.577 397.299 437.612 397.515 437.683C397.732 437.754 397.925 437.858 398.092 437.994C398.26 438.129 398.396 438.295 398.501 438.491C398.608 438.687 398.676 438.911 398.706 439.164ZM403.377 439.818C403.377 440.294 403.287 440.699 403.107 441.033C402.928 441.366 402.684 441.621 402.374 441.798C402.066 441.972 401.719 442.06 401.334 442.06C400.946 442.06 400.598 441.972 400.29 441.795C399.982 441.619 399.738 441.364 399.559 441.031C399.38 440.697 399.291 440.293 399.291 439.818C399.291 439.342 399.38 438.938 399.559 438.604C399.738 438.27 399.982 438.016 400.29 437.841C400.598 437.665 400.946 437.577 401.334 437.577C401.719 437.577 402.066 437.665 402.374 437.841C402.684 438.016 402.928 438.27 403.107 438.604C403.287 438.938 403.377 439.342 403.377 439.818ZM402.442 439.818C402.442 439.51 402.396 439.25 402.304 439.038C402.213 438.827 402.084 438.666 401.918 438.557C401.752 438.447 401.557 438.393 401.334 438.393C401.111 438.393 400.917 438.447 400.75 438.557C400.584 438.666 400.455 438.827 400.363 439.038C400.272 439.25 400.226 439.51 400.226 439.818C400.226 440.126 400.272 440.386 400.363 440.598C400.455 440.81 400.584 440.97 400.75 441.08C400.917 441.189 401.111 441.244 401.334 441.244C401.557 441.244 401.752 441.189 401.918 441.08C402.084 440.97 402.213 440.81 402.304 440.598C402.396 440.386 402.442 440.126 402.442 439.818ZM404.061 437.636H405.199L406.4 440.568H406.452L407.653 437.636H408.791V442H407.896V439.16H407.86L406.731 441.979H406.121L404.992 439.149H404.956V442H404.061V437.636ZM409.551 442V437.636H412.44V438.397H410.474V439.437H412.249V440.197H410.474V442H409.551ZM417.071 439.818C417.071 440.294 416.981 440.699 416.8 441.033C416.621 441.366 416.377 441.621 416.067 441.798C415.759 441.972 415.412 442.06 415.028 442.06C414.64 442.06 414.292 441.972 413.983 441.795C413.675 441.619 413.432 441.364 413.253 441.031C413.074 440.697 412.984 440.293 412.984 439.818C412.984 439.342 413.074 438.938 413.253 438.604C413.432 438.27 413.675 438.016 413.983 437.841C414.292 437.665 414.64 437.577 415.028 437.577C415.412 437.577 415.759 437.665 416.067 437.841C416.377 438.016 416.621 438.27 416.8 438.604C416.981 438.938 417.071 439.342 417.071 439.818ZM416.135 439.818C416.135 439.51 416.089 439.25 415.997 439.038C415.906 438.827 415.778 438.666 415.611 438.557C415.445 438.447 415.251 438.393 415.028 438.393C414.805 438.393 414.61 438.447 414.444 438.557C414.278 438.666 414.148 438.827 414.056 439.038C413.965 439.25 413.92 439.51 413.92 439.818C413.92 440.126 413.965 440.386 414.056 440.598C414.148 440.81 414.278 440.97 414.444 441.08C414.61 441.189 414.805 441.244 415.028 441.244C415.251 441.244 415.445 441.189 415.611 441.08C415.778 440.97 415.906 440.81 415.997 440.598C416.089 440.386 416.135 440.126 416.135 439.818ZM417.754 442V437.636H419.476C419.805 437.636 420.087 437.695 420.32 437.813C420.554 437.93 420.732 438.095 420.854 438.31C420.978 438.523 421.04 438.773 421.04 439.062C421.04 439.352 420.977 439.601 420.852 439.81C420.727 440.017 420.546 440.176 420.309 440.287C420.073 440.398 419.788 440.453 419.452 440.453H418.3V439.712H419.303C419.479 439.712 419.626 439.687 419.742 439.639C419.859 439.591 419.945 439.518 420.002 439.422C420.06 439.325 420.089 439.205 420.089 439.062C420.089 438.917 420.06 438.795 420.002 438.695C419.945 438.596 419.858 438.521 419.74 438.469C419.624 438.417 419.477 438.391 419.299 438.391H418.677V442H417.754ZM420.111 440.014L421.195 442H420.177L419.116 440.014H420.111ZM421.526 438.397V437.636H425.109V438.397H423.773V442H422.862V438.397H421.526ZM427.088 442V437.636H428.81C429.139 437.636 429.421 437.695 429.654 437.813C429.888 437.93 430.066 438.095 430.188 438.31C430.312 438.523 430.374 438.773 430.374 439.062C430.374 439.352 430.311 439.601 430.186 439.81C430.061 440.017 429.88 440.176 429.643 440.287C429.407 440.398 429.122 440.453 428.786 440.453H427.634V439.712H428.637C428.813 439.712 428.96 439.687 429.076 439.639C429.193 439.591 429.279 439.518 429.336 439.422C429.394 439.325 429.423 439.205 429.423 439.062C429.423 438.917 429.394 438.795 429.336 438.695C429.279 438.596 429.192 438.521 429.074 438.469C428.958 438.417 428.811 438.391 428.633 438.391H428.011V442H427.088ZM429.445 440.014L430.529 442H429.511L428.45 440.014H429.445ZM435.036 439.818C435.036 440.294 434.945 440.699 434.765 441.033C434.586 441.366 434.342 441.621 434.032 441.798C433.724 441.972 433.377 442.06 432.992 442.06C432.605 442.06 432.257 441.972 431.948 441.795C431.64 441.619 431.396 441.364 431.218 441.031C431.039 440.697 430.949 440.293 430.949 439.818C430.949 439.342 431.039 438.938 431.218 438.604C431.396 438.27 431.64 438.016 431.948 437.841C432.257 437.665 432.605 437.577 432.992 437.577C433.377 437.577 433.724 437.665 434.032 437.841C434.342 438.016 434.586 438.27 434.765 438.604C434.945 438.938 435.036 439.342 435.036 439.818ZM434.1 439.818C434.1 439.51 434.054 439.25 433.962 439.038C433.871 438.827 433.742 438.666 433.576 438.557C433.41 438.447 433.215 438.393 432.992 438.393C432.769 438.393 432.575 438.447 432.409 438.557C432.242 438.666 432.113 438.827 432.021 439.038C431.93 439.25 431.884 439.51 431.884 439.818C431.884 440.126 431.93 440.386 432.021 440.598C432.113 440.81 432.242 440.97 432.409 441.08C432.575 441.189 432.769 441.244 432.992 441.244C433.215 441.244 433.41 441.189 433.576 441.08C433.742 440.97 433.871 440.81 433.962 440.598C434.054 440.386 434.1 440.126 434.1 439.818ZM439.729 439.818C439.729 440.294 439.639 440.699 439.458 441.033C439.279 441.366 439.035 441.621 438.725 441.798C438.417 441.972 438.071 442.06 437.686 442.06C437.298 442.06 436.95 441.972 436.642 441.795C436.333 441.619 436.09 441.364 435.911 441.031C435.732 440.697 435.642 440.293 435.642 439.818C435.642 439.342 435.732 438.938 435.911 438.604C436.09 438.27 436.333 438.016 436.642 437.841C436.95 437.665 437.298 437.577 437.686 437.577C438.071 437.577 438.417 437.665 438.725 437.841C439.035 438.016 439.279 438.27 439.458 438.604C439.639 438.938 439.729 439.342 439.729 439.818ZM438.794 439.818C438.794 439.51 438.748 439.25 438.655 439.038C438.564 438.827 438.436 438.666 438.27 438.557C438.103 438.447 437.909 438.393 437.686 438.393C437.463 438.393 437.268 438.447 437.102 438.557C436.936 438.666 436.806 438.827 436.714 439.038C436.623 439.25 436.578 439.51 436.578 439.818C436.578 440.126 436.623 440.386 436.714 440.598C436.806 440.81 436.936 440.97 437.102 441.08C437.268 441.189 437.463 441.244 437.686 441.244C437.909 441.244 438.103 441.189 438.27 441.08C438.436 440.97 438.564 440.81 438.655 440.598C438.748 440.386 438.794 440.126 438.794 439.818ZM440.412 437.636H441.55L442.752 440.568H442.803L444.005 437.636H445.143V442H444.248V439.16H444.211L443.082 441.979H442.473L441.344 439.149H441.307V442H440.412V437.636Z" fill="#1E3A5F"/>
<path d="M870.277 436H817.723C816.771 436 816 437.95 816 440.356V529.644C816 532.05 816.771 534 817.723 534H870.277C871.229 534 872 532.05 872 529.644V440.356C872 437.95 871.229 436 870.277 436Z" fill="#FCE7F3" stroke="#D08FB3" stroke-width="1.5"/>
<path d="M843.5 459.333C845.525 459.333 847.167 457.468 847.167 455.167C847.167 452.865 845.525 451 843.5 451C841.475 451 839.833 452.865 839.833 455.167C839.833 457.468 841.475 459.333 843.5 459.333Z" fill="#A0467A"/>
<path d="M839.222 463.5V476H847.778V463.5H839.222ZM838 462.111H849V471.834H838V462.111Z" fill="#A0467A"/>
<path d="M830.649 495L829.4 490.636H830.408L831.13 493.668H831.166L831.963 490.636H832.826L833.621 493.675H833.659L834.382 490.636H835.389L834.141 495H833.242L832.411 492.147H832.377L831.548 495H830.649ZM839.647 492.818C839.647 493.294 839.557 493.699 839.376 494.033C839.197 494.366 838.953 494.621 838.643 494.798C838.335 494.972 837.989 495.06 837.604 495.06C837.216 495.06 836.868 494.972 836.56 494.795C836.251 494.619 836.008 494.364 835.829 494.031C835.65 493.697 835.56 493.293 835.56 492.818C835.56 492.342 835.65 491.938 835.829 491.604C836.008 491.27 836.251 491.016 836.56 490.841C836.868 490.665 837.216 490.577 837.604 490.577C837.989 490.577 838.335 490.665 838.643 490.841C838.953 491.016 839.197 491.27 839.376 491.604C839.557 491.938 839.647 492.342 839.647 492.818ZM838.712 492.818C838.712 492.51 838.665 492.25 838.573 492.038C838.482 491.827 838.354 491.666 838.188 491.557C838.021 491.447 837.827 491.393 837.604 491.393C837.381 491.393 837.186 491.447 837.02 491.557C836.854 491.666 836.724 491.827 836.632 492.038C836.541 492.25 836.496 492.51 836.496 492.818C836.496 493.126 836.541 493.386 836.632 493.598C836.724 493.81 836.854 493.97 837.02 494.08C837.186 494.189 837.381 494.244 837.604 494.244C837.827 494.244 838.021 494.189 838.188 494.08C838.354 493.97 838.482 493.81 838.573 493.598C838.665 493.386 838.712 493.126 838.712 492.818ZM840.33 490.636H841.468L842.67 493.568H842.721L843.923 490.636H845.061V495H844.166V492.16H844.129L843 494.979H842.391L841.262 492.149H841.225V495H840.33V490.636ZM845.821 495V490.636H848.761V491.397H846.743V492.437H848.61V493.197H846.743V494.239H848.77V495H845.821ZM853.144 490.636V495H852.347L850.449 492.254H850.417V495H849.494V490.636H850.304L852.188 493.381H852.226V490.636H853.144ZM854.473 490.636V492.294H853.826V490.636H854.473ZM857.528 491.891C857.511 491.719 857.438 491.586 857.308 491.491C857.179 491.396 857.004 491.348 856.782 491.348C856.631 491.348 856.504 491.369 856.401 491.412C856.297 491.453 856.217 491.511 856.162 491.585C856.108 491.658 856.081 491.742 856.081 491.836C856.078 491.914 856.094 491.982 856.13 492.04C856.167 492.099 856.217 492.149 856.281 492.192C856.345 492.233 856.419 492.269 856.503 492.3C856.587 492.33 856.676 492.356 856.771 492.377L857.163 492.471C857.354 492.513 857.528 492.57 857.688 492.641C857.847 492.712 857.984 492.8 858.101 492.903C858.217 493.007 858.308 493.129 858.371 493.27C858.437 493.411 858.47 493.572 858.472 493.754C858.47 494.021 858.402 494.252 858.267 494.448C858.134 494.643 857.94 494.794 857.688 494.902C857.436 495.009 857.133 495.062 856.778 495.062C856.425 495.062 856.119 495.008 855.857 494.9C855.597 494.792 855.394 494.632 855.248 494.42C855.103 494.207 855.027 493.944 855.02 493.63H855.913C855.923 493.776 855.964 493.898 856.038 493.996C856.114 494.093 856.214 494.166 856.339 494.216C856.465 494.264 856.608 494.288 856.767 494.288C856.923 494.288 857.059 494.266 857.174 494.22C857.29 494.175 857.381 494.112 857.445 494.031C857.509 493.95 857.54 493.857 857.54 493.751C857.54 493.653 857.511 493.571 857.453 493.504C857.396 493.437 857.313 493.381 857.202 493.334C857.092 493.287 856.958 493.244 856.799 493.206L856.324 493.087C855.956 492.997 855.665 492.857 855.452 492.667C855.239 492.477 855.134 492.22 855.135 491.898C855.134 491.634 855.204 491.403 855.346 491.205C855.489 491.008 855.686 490.854 855.936 490.743C856.186 490.632 856.47 490.577 856.788 490.577C857.112 490.577 857.395 490.632 857.636 490.743C857.879 490.854 858.068 491.008 858.203 491.205C858.338 491.403 858.408 491.631 858.412 491.891H857.528Z" fill="#7A2F5C"/>
<path d="M821.706 503.164H820.773C820.756 503.043 820.721 502.936 820.668 502.842C820.616 502.747 820.548 502.666 820.466 502.599C820.384 502.533 820.288 502.482 820.18 502.446C820.074 502.411 819.958 502.393 819.833 502.393C819.607 502.393 819.411 502.449 819.243 502.561C819.075 502.672 818.945 502.834 818.853 503.047C818.761 503.259 818.714 503.516 818.714 503.818C818.714 504.129 818.761 504.391 818.853 504.602C818.947 504.814 819.077 504.974 819.245 505.082C819.413 505.19 819.607 505.244 819.827 505.244C819.95 505.244 820.065 505.227 820.17 505.195C820.276 505.162 820.371 505.114 820.453 505.052C820.536 504.988 820.604 504.911 820.658 504.82C820.713 504.729 820.751 504.625 820.773 504.509L821.706 504.513C821.682 504.713 821.621 504.906 821.525 505.092C821.43 505.277 821.301 505.442 821.139 505.589C820.979 505.734 820.787 505.849 820.564 505.934C820.342 506.018 820.092 506.06 819.812 506.06C819.423 506.06 819.075 505.972 818.768 505.795C818.462 505.619 818.221 505.364 818.043 505.031C817.867 504.697 817.779 504.293 817.779 503.818C817.779 503.342 817.869 502.938 818.048 502.604C818.227 502.27 818.469 502.016 818.776 501.841C819.083 501.665 819.428 501.577 819.812 501.577C820.065 501.577 820.299 501.612 820.515 501.683C820.732 501.754 820.925 501.858 821.092 501.994C821.26 502.129 821.396 502.295 821.501 502.491C821.608 502.687 821.676 502.911 821.706 503.164ZM826.377 503.818C826.377 504.294 826.287 504.699 826.107 505.033C825.928 505.366 825.684 505.621 825.374 505.798C825.066 505.972 824.719 506.06 824.334 506.06C823.946 506.06 823.598 505.972 823.29 505.795C822.982 505.619 822.738 505.364 822.559 505.031C822.38 504.697 822.291 504.293 822.291 503.818C822.291 503.342 822.38 502.938 822.559 502.604C822.738 502.27 822.982 502.016 823.29 501.841C823.598 501.665 823.946 501.577 824.334 501.577C824.719 501.577 825.066 501.665 825.374 501.841C825.684 502.016 825.928 502.27 826.107 502.604C826.287 502.938 826.377 503.342 826.377 503.818ZM825.442 503.818C825.442 503.51 825.396 503.25 825.304 503.038C825.213 502.827 825.084 502.666 824.918 502.557C824.752 502.447 824.557 502.393 824.334 502.393C824.111 502.393 823.917 502.447 823.75 502.557C823.584 502.666 823.455 502.827 823.363 503.038C823.272 503.25 823.226 503.51 823.226 503.818C823.226 504.126 823.272 504.386 823.363 504.598C823.455 504.81 823.584 504.97 823.75 505.08C823.917 505.189 824.111 505.244 824.334 505.244C824.557 505.244 824.752 505.189 824.918 505.08C825.084 504.97 825.213 504.81 825.304 504.598C825.396 504.386 825.442 504.126 825.442 503.818ZM827.061 501.636H828.199L829.4 504.568H829.452L830.653 501.636H831.791V506H830.896V503.16H830.86L829.731 505.979H829.121L827.992 503.149H827.956V506H827.061V501.636ZM832.551 506V501.636H835.44V502.397H833.474V503.437H835.249V504.197H833.474V506H832.551ZM840.071 503.818C840.071 504.294 839.981 504.699 839.8 505.033C839.621 505.366 839.377 505.621 839.067 505.798C838.759 505.972 838.412 506.06 838.028 506.06C837.64 506.06 837.292 505.972 836.983 505.795C836.675 505.619 836.432 505.364 836.253 505.031C836.074 504.697 835.984 504.293 835.984 503.818C835.984 503.342 836.074 502.938 836.253 502.604C836.432 502.27 836.675 502.016 836.983 501.841C837.292 501.665 837.64 501.577 838.028 501.577C838.412 501.577 838.759 501.665 839.067 501.841C839.377 502.016 839.621 502.27 839.8 502.604C839.981 502.938 840.071 503.342 840.071 503.818ZM839.135 503.818C839.135 503.51 839.089 503.25 838.997 503.038C838.906 502.827 838.778 502.666 838.611 502.557C838.445 502.447 838.251 502.393 838.028 502.393C837.805 502.393 837.61 502.447 837.444 502.557C837.278 502.666 837.148 502.827 837.056 503.038C836.965 503.25 836.92 503.51 836.92 503.818C836.92 504.126 836.965 504.386 837.056 504.598C837.148 504.81 837.278 504.97 837.444 505.08C837.61 505.189 837.805 505.244 838.028 505.244C838.251 505.244 838.445 505.189 838.611 505.08C838.778 504.97 838.906 504.81 838.997 504.598C839.089 504.386 839.135 504.126 839.135 503.818ZM840.754 506V501.636H842.476C842.805 501.636 843.087 501.695 843.32 501.813C843.554 501.93 843.732 502.095 843.854 502.31C843.978 502.523 844.04 502.773 844.04 503.062C844.04 503.352 843.977 503.601 843.852 503.81C843.727 504.017 843.546 504.176 843.309 504.287C843.073 504.398 842.788 504.453 842.452 504.453H841.3V503.712H842.303C842.479 503.712 842.626 503.687 842.742 503.639C842.859 503.591 842.945 503.518 843.002 503.422C843.06 503.325 843.089 503.205 843.089 503.062C843.089 502.917 843.06 502.795 843.002 502.695C842.945 502.596 842.858 502.521 842.74 502.469C842.624 502.417 842.477 502.391 842.299 502.391H841.677V506H840.754ZM843.111 504.014L844.195 506H843.177L842.116 504.014H843.111ZM844.526 502.397V501.636H848.109V502.397H846.773V506H845.862V502.397H844.526ZM850.088 506V501.636H851.81C852.139 501.636 852.421 501.695 852.654 501.813C852.888 501.93 853.066 502.095 853.188 502.31C853.312 502.523 853.374 502.773 853.374 503.062C853.374 503.352 853.311 503.601 853.186 503.81C853.061 504.017 852.88 504.176 852.643 504.287C852.407 504.398 852.122 504.453 851.786 504.453H850.634V503.712H851.637C851.813 503.712 851.96 503.687 852.076 503.639C852.193 503.591 852.279 503.518 852.336 503.422C852.394 503.325 852.423 503.205 852.423 503.062C852.423 502.917 852.394 502.795 852.336 502.695C852.279 502.596 852.192 502.521 852.074 502.469C851.958 502.417 851.811 502.391 851.633 502.391H851.011V506H850.088ZM852.445 504.014L853.529 506H852.511L851.45 504.014H852.445ZM858.036 503.818C858.036 504.294 857.945 504.699 857.765 505.033C857.586 505.366 857.342 505.621 857.032 505.798C856.724 505.972 856.377 506.06 855.992 506.06C855.605 506.06 855.257 505.972 854.948 505.795C854.64 505.619 854.396 505.364 854.218 505.031C854.039 504.697 853.949 504.293 853.949 503.818C853.949 503.342 854.039 502.938 854.218 502.604C854.396 502.27 854.64 502.016 854.948 501.841C855.257 501.665 855.605 501.577 855.992 501.577C856.377 501.577 856.724 501.665 857.032 501.841C857.342 502.016 857.586 502.27 857.765 502.604C857.945 502.938 858.036 503.342 858.036 503.818ZM857.1 503.818C857.1 503.51 857.054 503.25 856.962 503.038C856.871 502.827 856.742 502.666 856.576 502.557C856.41 502.447 856.215 502.393 855.992 502.393C855.769 502.393 855.575 502.447 855.409 502.557C855.242 502.666 855.113 502.827 855.021 503.038C854.93 503.25 854.884 503.51 854.884 503.818C854.884 504.126 854.93 504.386 855.021 504.598C855.113 504.81 855.242 504.97 855.409 505.08C855.575 505.189 855.769 505.244 855.992 505.244C856.215 505.244 856.41 505.189 856.576 505.08C856.742 504.97 856.871 504.81 856.962 504.598C857.054 504.386 857.1 504.126 857.1 503.818ZM862.729 503.818C862.729 504.294 862.639 504.699 862.458 505.033C862.279 505.366 862.035 505.621 861.725 505.798C861.417 505.972 861.071 506.06 860.686 506.06C860.298 506.06 859.95 505.972 859.642 505.795C859.333 505.619 859.09 505.364 858.911 505.031C858.732 504.697 858.642 504.293 858.642 503.818C858.642 503.342 858.732 502.938 858.911 502.604C859.09 502.27 859.333 502.016 859.642 501.841C859.95 501.665 860.298 501.577 860.686 501.577C861.071 501.577 861.417 501.665 861.725 501.841C862.035 502.016 862.279 502.27 862.458 502.604C862.639 502.938 862.729 503.342 862.729 503.818ZM861.794 503.818C861.794 503.51 861.748 503.25 861.655 503.038C861.564 502.827 861.436 502.666 861.27 502.557C861.103 502.447 860.909 502.393 860.686 502.393C860.463 502.393 860.268 502.447 860.102 502.557C859.936 502.666 859.806 502.827 859.714 503.038C859.623 503.25 859.578 503.51 859.578 503.818C859.578 504.126 859.623 504.386 859.714 504.598C859.806 504.81 859.936 504.97 860.102 505.08C860.268 505.189 860.463 505.244 860.686 505.244C860.909 505.244 861.103 505.189 861.27 505.08C861.436 504.97 861.564 504.81 861.655 504.598C861.748 504.386 861.794 504.126 861.794 503.818ZM863.412 501.636H864.55L865.752 504.568H865.803L867.005 501.636H868.143V506H867.248V503.16H867.211L866.082 505.979H865.473L864.344 503.149H864.307V506H863.412V501.636Z" fill="#7A2F5C"/>
<path d="M373.5 466.5V533" stroke="black"/>
<path d="M373 493H422V468H373V493Z" fill="#D4D3D3" stroke="#94A3B8" stroke-width="0.5"/>
<path d="M403 493V468M413 493V468M393 493V468M383 493V468" stroke="black" stroke-width="0.2"/>
<path d="M381.823 482.177C381.726 482.079 381.726 481.921 381.823 481.823L383.414 480.232C383.512 480.135 383.67 480.135 383.768 480.232C383.865 480.33 383.865 480.488 383.768 480.586L382.354 482L383.768 483.414C383.865 483.512 383.865 483.67 383.768 483.768C383.67 483.865 383.512 483.865 383.414 483.768L381.823 482.177ZM412 482V482.25H382V482V481.75H412V482Z" fill="black"/>
<path d="M767 493H816V468H767V493Z" fill="#D4D3D3" stroke="#94A3B8" stroke-width="0.5"/>
<path d="M797 493V468M807 493V468M787 493V468M777 493V468" stroke="black" stroke-width="0.2"/>
<path d="M775.823 482.177C775.726 482.079 775.726 481.921 775.823 481.823L777.414 480.232C777.512 480.135 777.67 480.135 777.768 480.232C777.865 480.33 777.865 480.488 777.768 480.586L776.354 482L777.768 483.414C777.865 483.512 777.865 483.67 777.768 483.768C777.67 483.865 777.512 483.865 777.414 483.768L775.823 482.177ZM806 482V482.25H776V482V481.75H806V482Z" fill="black"/>
<path d="M320 432H369V407H320V432Z" fill="#D4D3D3" stroke="#94A3B8" stroke-width="0.5"/>
<path d="M350 432V407M360 432V407M340 432V407M330 432V407" stroke="black" stroke-width="0.2"/>
<path d="M328.823 421.177C328.726 421.079 328.726 420.921 328.823 420.823L330.414 419.232C330.512 419.135 330.67 419.135 330.768 419.232C330.865 419.33 330.865 419.488 330.768 419.586L329.354 421L330.768 422.414C330.865 422.512 330.865 422.67 330.768 422.768C330.67 422.865 330.512 422.865 330.414 422.768L328.823 421.177ZM359 421V421.25H329V421V420.75H359V421Z" fill="black"/>
<path d="M23 432H72V407H23V432Z" fill="#D4D3D3" stroke="#94A3B8" stroke-width="0.5"/>
<path d="M53 432V407M63 432V407M43 432V407M33 432V407" stroke="black" stroke-width="0.2"/>
<path d="M31.8232 421.177C31.7256 421.079 31.7256 420.921 31.8232 420.823L33.4142 419.232C33.5118 419.135 33.6701 419.135 33.7678 419.232C33.8654 419.33 33.8654 419.488 33.7678 419.586L32.3536 421L33.7678 422.414C33.8654 422.512 33.8654 422.67 33.7678 422.768C33.6701 422.865 33.5118 422.865 33.4142 422.768L31.8232 421.177ZM62 421V421.25H32V421V420.75H62V421Z" fill="black"/>
</svg>
